STARTFONT 2.1
COMMENT
COMMENT Converted from OpenType font "Font 90 Icons.ttf" by "otf2bdf 3.0".
COMMENT
FONT -FreeType-Font 90 Icons-Medium-R-Normal--44-320-100-100-P-165-ISO10646-1
SIZE 32 100 100
FONTBOUNDINGBOX 47 46 0 -9
STARTPROPERTIES 19
FOUNDRY "FreeType"
FAMILY_NAME "Font 90 Icons"
WEIGHT_NAME "Medium"
SLANT "R"
SETWIDTH_NAME "Normal"
ADD_STYLE_NAME ""
PIXEL_SIZE 44
POINT_SIZE 320
RESOLUTION_X 100
RESOLUTION_Y 100
SPACING "P"
AVERAGE_WIDTH 165
CHARSET_REGISTRY "ISO10646"
CHARSET_ENCODING "1"
FONT_ASCENT 36
FONT_DESCENT 8
COPYRIGHT "Typeface © (el-harrak.blogspot.com). <darrati10@gmail.com>. All Rights Reserved"
_OTF_FONTFILE "Font 90 Icons.ttf"
_OTF_PSNAME "Font 90 Icons"
ENDPROPERTIES
CHARS 242
STARTCHAR 0000
ENCODING 0
SWIDTH 0 0
DWIDTH 0 0
BBX 0 0 0 0
BITMAP
ENDCHAR
STARTCHAR 001D
ENCODING 29
SWIDTH 0 0
DWIDTH 0 0
BBX 0 0 0 0
BITMAP
ENDCHAR
STARTCHAR 0020
ENCODING 32
SWIDTH 247 0
DWIDTH 11 0
BBX 0 0 0 0
BITMAP
ENDCHAR
STARTCHAR 0021
ENCODING 33
SWIDTH 967 0
DWIDTH 43 0
BBX 43 42 0 -7
BITMAP
0000FFE00000
0007FEFC0000
001FFFCF0000
007FFFF1C000
00FFFFF8E000
01FFFFFC3000
03FFFFFC1800
07FFFFFE0C00
0FFFF1FE0600
0FFFE0FE0200
1FFFE0FE0300
3FFFE0FE0180
3FFFE0FE0180
3FFFF1FE0080
7FFFFFFE00C0
7FFFFFFC0040
7FFFFFFC0040
7FFFFFF80040
FFFFFFF00060
FFFFFFE00060
FFFFFF800060
FFFFC0000060
FFFF00000060
FFFE00000040
7FFC00000040
7FF800000040
7FF8000000C0
7FF0000000C0
3FF00E000080
3FF01F000180
3FF01F000100
1FF01F000300
0FF01F000200
0FF004000600
07F000000C00
03F800001800
01F800003000
00FC0000E000
003E00018000
001F80070000
0007E0FC0000
0000FFE00000
ENDCHAR
STARTCHAR 0022
ENCODING 34
SWIDTH 967 0
DWIDTH 43 0
BBX 43 34 0 -3
BITMAP
0001FFF00000
0001FFF00000
000180300000
000180180000
000180180000
000180180000
3FFFFFFFFF80
7FFFFFFFFFC0
7FFFFFFFFFC0
FFFFFFFFFFE0
FFFFFFFFFFE0
FFFFFFFFFFE0
FFFFFFFFFFE0
FFFFFFFFFFE0
FFFFFFFFFFE0
FFFFFFFFFFE0
FFFFFFFFFFE0
FFFFFFFFFFE0
FFFFFFFFFFE0
FFFFFFFFFFE0
FFFFFFFFFFE0
FFFFFFFFFFE0
FFFFFFFFFFE0
FFFFFFFFFFE0
FFFFFFFFFFE0
FFFFFFFFFFE0
FFFFFFFFFFE0
FFFFFFFFFFE0
FFFFFFFFFFE0
FFFFFFFFFFE0
FFFFFFFFFFE0
7FFFFFFFFFC0
7FFFFFFFFFC0
3FFFFFFFFF80
ENDCHAR
STARTCHAR 0023
ENCODING 35
SWIDTH 967 0
DWIDTH 43 0
BBX 40 44 2 -9
BITMAP
003FF00000
60FFFE0000
F1FFFFC000
F3FFFFF810
FBFFFFFFF0
FBFFFFFFF8
FBFFFFFFF8
FBFFFFFFF8
79FFFFFFF8
79FFFFFFF8
7DFFFFFFF8
7DFFFFFFFC
7DFFFFFFFC
3CFFFFFFFC
3CFFFFFFFC
3CFFFFFFFC
3EFFFFFFFC
3EFFFFFFFC
3EFFFFFFFE
1E7FFFFFFE
1E7F81FFFE
1F7C003FFE
1F700007FE
1F600001FE
1F0000007F
0F00000000
0F00000000
0F80000000
0F80000000
0F80000000
0780000000
0780000000
07C0000000
07C0000000
07C0000000
07C0000000
03C0000000
03C0000000
03E0000000
03E0000000
03E0000000
01E0000000
01E0000000
01F0000000
ENDCHAR
STARTCHAR 0024
ENCODING 36
SWIDTH 967 0
DWIDTH 43 0
BBX 42 42 0 -7
BITMAP
07C000000000
0FF000000000
1FF000000000
3FF800000000
7FFC00000000
7FFE00000000
FFFF00000000
FFFF80000000
FFFFC0000000
7FFFF0000000
7FFFF8000000
3FFFFC000000
0FFFFF000000
07FFFF800000
03FFFFE00000
01FFFFC00000
00FFFF800000
00FFFF000000
007FFE000000
003FFC000000
001FFA000000
001FFE000000
000FE7000000
0007C3800000
000380C00000
000100600000
000000300000
000000180000
0000000C0000
000000060000
000000030000
000000018000
00000000C000
000000004000
000000002000
000000001000
000000000800
000000000400
000000000200
000000000100
000000000080
000000000040
ENDCHAR
STARTCHAR 0025
ENCODING 37
SWIDTH 967 0
DWIDTH 43 0
BBX 41 45 1 -9
BITMAP
00003E000000
00007F000000
00007F000000
00007F000000
0001FFC00000
0007FFF00000
001FFFFC0000
007FFFFF0000
00FFFFFF8000
3DFFFFFFDE00
7FFE3E3FFF00
7FF83E0FFF00
FFF03C07FF00
7FE01C03FF00
7FF01C07FF00
3FF81C0FFE00
1FFC181FFC00
1FFE1C3FFC00
1F7F9CFF7E00
3F07FFF07E00
3F00FF807E00
3F00FF807E00
3F007F807E00
3F00FF807E00
3F07FFF07E00
3F3FBEFF7E00
1FFF1C3FFC00
1FFC1C1FFC00
3FF81C0FFE00
7FF01C07FF00
7FE01C03FF80
7FF03E07FF80
7FF83E0FFF80
7FFE3E3FFF00
3DFFBEFFDE00
00FFFFFF8000
007FFFFF0000
001FFFFC0000
000FFFF80000
0001FFC00000
00007F000000
00007F000000
00007F000000
00003E000000
000008000000
ENDCHAR
STARTCHAR 0026
ENCODING 38
SWIDTH 967 0
DWIDTH 43 0
BBX 43 42 0 -7
BITMAP
0000FFE00000
0007FFFC0000
001FE0FF0000
007E000F8000
00F80003E000
01E01F00F000
03C0FFE07800
0783FFF83C00
0F0FFFFE1E00
0E1FFFFF0E00
1C3FFFFF8700
187FFFFFC300
38FFFFFFE380
30FBFFFFE180
71F9FFF7F1C0
71FCFFE7F1C0
63FE7FCFF0C0
63FF3F9FF8C0
E3FF9F3FF8C0
E3FFCE7FF8E0
E3FFE0FFF8E0
E3FFF1FFF8E0
E3FFF1FFF8E0
E3FFFBFFF8C0
63FFFFFFF8C0
61FFFFFFF0C0
71FFFFFFF1C0
71FFFFFFF1C0
30FFFFFFE180
38FFFFFFE380
187FFFFFC700
1C3FFFFF8700
0E1FFFFF0E00
0F0FFFFE1C00
0783FFF83C00
03C0FFE07800
01E00400F000
00F80003E000
003E000F8000
001FF1FF0000
0007FFFC0000
0000FFC00000
ENDCHAR
STARTCHAR 0027
ENCODING 39
SWIDTH 967 0
DWIDTH 43 0
BBX 43 43 0 -8
BITMAP
000FFC000000
007FFF000000
00FFFFC00000
03FFFFE00000
07FFFFF80000
0FFFFFF80000
0FFC0FFC0000
1FF003FE0000
3FC0C1FE0000
3F81E0FF0000
7F81E07F0000
7F01E03F8000
7E01E03F8000
7E01E01F8000
FE3FFF1F8000
FE7FFF9F8000
FE7FFF9F8000
FE3FFF1F8000
7E01E01F8000
7E01E03F8000
7F01E03F8000
7F01E03F8000
3F81E07F0000
3FC0C0FF0000
1FE001FF0000
1FF807FF8000
0FFFFFFFC000
07FFFFFFE000
03FFFFFFF000
01FFFFFFF800
007FFFFFFC00
001FFEFFFE00
0003E07FFF00
0000003FFF80
0000001FFFC0
0000000FFFC0
00000007FFC0
00000003FFE0
00000001FFC0
00000000FFC0
000000007F80
000000003F80
000000000400
ENDCHAR
STARTCHAR 0028
ENCODING 40
SWIDTH 967 0
DWIDTH 43 0
BBX 43 43 0 -8
BITMAP
0001E0000000
001FFE000000
007FFF800000
01FFFFE00000
03FFFFF00000
07FFFFF80000
0FFFFFFC0000
1FF807FC0000
1FE003FE0000
3FC000FF0000
3F80007F0000
7F00007F8000
7F00003F8000
7E00003F8000
FE00001F8000
FE7FFF1F8000
FE7FFF9F8000
FE7FFF1F8000
FE3FFF1F8000
7E00001F8000
7E00003F8000
7F00003F8000
7F00007F8000
3F80007F0000
3FC000FF0000
1FE003FF0000
1FF807FF8000
0FFFFFFFC000
07FFFFFFE000
03FFFFFFF000
01FFFFFFF800
007FFFFFFC00
001FFEFFFE00
0000E07FFF00
0000003FFF80
0000001FFFC0
0000000FFFC0
00000007FFE0
00000003FFE0
00000001FFC0
00000000FFC0
000000007F80
000000001F00
ENDCHAR
STARTCHAR 0029
ENCODING 41
SWIDTH 967 0
DWIDTH 43 0
BBX 43 32 0 -2
BITMAP
3FFFFFFFFF80
7FFFFFFFFFC0
FFFFFFFFFFE0
FC00000007E0
FE0000000FE0
FF0000001FE0
EF8000003EE0
E7C000007CE0
E3E00000F8E0
E1F00001F0E0
E0F80003E0E0
E07C0007C0E0
E03E000F80E0
E01F001F00E0
E00F803E00E0
E007C07C00E0
E003E0FC00E0
E007F1FE00E0
E00FFBFE00E0
E01E7FCF00E0
E03C3F8780E0
E0780403C0E0
E0F00001E0E0
E1E00000F0E0
E3C0000078E0
E78000003CE0
EF0000001EE0
FE0000000FE0
FC00000007E0
FFFFFFFFFFE0
7FFFFFFFFFC0
7FFFFFFFFFC0
ENDCHAR
STARTCHAR 002A
ENCODING 42
SWIDTH 967 0
DWIDTH 43 0
BBX 37 45 3 -9
BITMAP
0000F80000
0001F80000
0001F80000
0001F80000
0001F80000
0001F80000
0001F80000
0001F80000
0001F80000
0001F80000
0001F80000
01E1F87800
01F9F9FC00
01FFFFF800
01FFFFF800
00FFFFF000
007FFFE000
3FBFFFDFE0
3FDFFFBFE0
3FEFFF7FE0
DFF7FEFFD8
EFFBFDFFB8
F7FDFBFF78
FBFEF7FEF8
FDFF8FFDF8
FEFFFFFBF8
FF7FFFF7F8
FFBFFFEFF8
FFDFFFDFF8
FFEFFFBFF8
FFF7FF7FF8
FFF3FE7FF8
FFE5FD3FF8
FFCEFBDFF8
FF9F27EFF8
FF3FFFF7F8
FE7FFFFBF8
FCFFFFFDF8
FDFFFFFEF8
FBFFFFFFF8
F7FFFFFFF8
EFFFFFFFF8
9FFFFFFFD8
3FFFFFFFE0
3FFFFFFFE0
ENDCHAR
STARTCHAR 002B
ENCODING 43
SWIDTH 967 0
DWIDTH 43 0
BBX 43 42 0 -7
BITMAP
FFFFFFFFFFE0
FFFFFFFFFFE0
FFFFFFFFFFE0
FFFFFFFFFFE0
FFFFFFFFFFE0
F8FFFFFFE3E0
F803FFF803E0
F807FFFC03E0
F80FFFFE03E0
F807FFFC03E0
F803FFF803E0
F801FFF003E0
F880FFE023E0
F9C1FFF073E0
FFE3FFF8FBE0
FFF7FFFDFFE0
FFFFFFFFFFE0
FFFFFFFFFFE0
FFFFFFFFFFE0
FFFFFFFFFFE0
FFFFFFFFFFE0
FFFFFFFFFFE0
FFFFFFFFFFE0
FFFFFFFFFFE0
FFFFFFFFFFE0
FFFFFFFFFFE0
FFF7FFFDFFE0
FFE3FFF8FBE0
F9C1FFF073E0
F880FFE023E0
F801FFF003E0
F803FFF803E0
F807FFFC03E0
F80FFFFE03E0
F807FFFC03E0
F803FFF803E0
FBFFFFFFFBE0
FFFFFFFFFFE0
FFFFFFFFFFE0
FFFFFFFFFFE0
FFFFFFFFFFE0
FFFFFFFFFFE0
ENDCHAR
STARTCHAR 002C
ENCODING 44
SWIDTH 967 0
DWIDTH 43 0
BBX 43 42 0 -7
BITMAP
00000000F000
0000003FF800
000001FFFC00
000003FFFE00
000007FFFF00
00000FFFFF80
00001FFF9FC0
00003FFF0FE0
00007FFE07C0
0000FFFF0FC0
0001FFFF9FC0
0003FFFFFFC0
0007FFFFFFC0
000FFFFFFFC0
001FFFFFFF80
003FFFFFFF80
007FFFFFFF80
00FFFFFFFF80
01F3FFFFFF00
03F1FFFFFE00
07F8FFFFFC00
0F9C7FFFF800
1F8E3FFFF000
3FC71FFFE000
7FE38FFFC000
FFF1C7FF8000
7FF8E3FF0000
3FFC71FE0000
1FFE38FC0000
0FFF1CF80000
07FF8FF00000
03FFC7E00000
01FFE7C00000
00FFFF800000
007FFF000000
003FFE000000
001FFC000000
000FF8000000
0007F0000000
0003E0000000
0001C0000000
000080000000
ENDCHAR
STARTCHAR 002D
ENCODING 45
SWIDTH 967 0
DWIDTH 43 0
BBX 43 42 0 -7
BITMAP
0000FFE00000
0007FFFC0000
001FFFFF0000
003F001F8000
00F80003E000
01E00001F000
03C000007800
078000003C00
0FC000081E00
0E60001C0E00
1C30003C0700
1C18007C0700
380C00FC0380
380601FC0380
700383FC01C0
700007FC01C0
7007FFFC01C0
6007FFFC00C0
E007FFFC00C0
E007FFFC00E0
E007FFFC00E0
E007FFFC00E0
E007FFFC00E0
E007FFFC00C0
6007FFFC00C0
7007FFFC01C0
700007FC01C0
700003FC01C0
380001FC0380
380000FD0380
1C00007D0700
1C00003D8700
0E00001CCE00
0F0000087E00
078000003C00
03C000007800
01E00001F000
00F80003E000
003F001F8000
001FFFFF0000
0007FFFC0000
0000FFE00000
ENDCHAR
STARTCHAR 002E
ENCODING 46
SWIDTH 967 0
DWIDTH 43 0
BBX 37 45 3 -9
BITMAP
1FFFFFFFE0
1800000060
1800000060
1800000060
1800000060
1800000060
1800000060
1800000060
1800000060
1800000060
1800000060
1800000060
1800000060
1800000060
1800000060
1800000060
1800000060
1800000060
1800000060
1800000060
1800000060
1FFFFFFFE0
0FFFFFFFC0
0000000000
0000000000
1FFFFFFFE0
1FFFFFFFE0
1FFFFF01E0
1FFFFF01E0
1FFFFF01E0
1FFFFFFFE0
1FFFFFFFE0
1FFFFFFFE0
0FFFFFFFC0
0000300000
0000300000
0000300000
0000300000
0000300000
000FFFC000
000FFFC000
7FFFFFFFF8
FFFFFFFFF8
000FFFC000
000FFF8000
ENDCHAR
STARTCHAR 002F
ENCODING 47
SWIDTH 967 0
DWIDTH 43 0
BBX 43 44 0 -8
BITMAP
00001E000000
06007FC00C00
0700FFE01C00
0701FFF01C00
0703FFF83800
0383FFF83800
4383FFF838C0
E3C3FFF870C0
71C3FFF871C0
71C3FFF871C0
71C3FFF8F1C0
71E3FFF8F3C0
39E3FFF8E380
38E3FFF8E380
38E3FFF8E380
38E3FFF8E380
38E3FFF8E380
38E3FFF8E380
38E3FFF8E380
38E3FFF8E380
38E3FFF8E380
38E3FFF8E380
38E3FFF8E380
39E3FFF8E380
79E3FFF8F380
71C3FFF8F1C0
71C3FFF871C0
71C3FFF871C0
E3C3FFF870C0
E383FFF038E0
4381FFF03840
0380FFE03800
07007FC01C00
07007F801C00
06007F800C00
04007F800400
00007F800000
00007F800000
00007F800000
00007F800000
00007F800000
00003F800000
00003F800000
00001F000000
ENDCHAR
STARTCHAR 0030
ENCODING 48
SWIDTH 967 0
DWIDTH 43 0
BBX 43 42 0 -7
BITMAP
0000FFE00000
0007FFFC0000
001FFFFF0000
003FFFFF8000
00FFFFFFE000
01FFFFFFF000
03FFFFFFF800
07F3FFFBFC00
0FE3FFF8FE00
0FC1FFF07E00
1F81FFE03F00
1F00FFE01F00
3F007FC01F80
3E007FC00F80
7E003F800FC0
7C003F8007C0
7C003F8007C0
7C007FC007C0
F800F1E007C0
F800E0E003E0
F800C0E003E0
FFFFC0FFFFE0
FFFFE0FFFFE0
FFFFE1FFFFC0
7FFFFFFFFFC0
7FFFFFFFFFC0
7FFFCE7FFFC0
7FFFC07FFFC0
3FFF803FFF80
3FFF803FFF80
3FFF001FFF00
1FFE001FFF00
0FFE000FFE00
0FFC0007FE00
07FC0007FC00
03FC0007F800
01FF003FF000
00FFFFFFE000
007FFFFFC000
001FFFFF0000
0007FFFC0000
0000FFE00000
ENDCHAR
STARTCHAR 0031
ENCODING 49
SWIDTH 967 0
DWIDTH 43 0
BBX 41 45 1 -9
BITMAP
0000FF800000
0000FF800000
0000FF800000
0000FF800000
0000FF800000
0018FF8C0000
0038FF8E0000
00F8FF8F8000
01F8FF8FC000
03F8FF8FE000
07F8FF8FF000
0FF8FF8FF800
1FF0FF87FC00
1FE0FF83FC00
3FC0FF81FE00
3F80FF80FE00
7F00FF807F00
7F00FF807F00
7E00FF803F00
FE00FF803F80
FC00FF803F80
FC00FF801F80
FC00FF801F80
FC00FF801F80
FC007F001F80
FC0000001F80
FC0000001F80
FC0000003F80
FE0000003F80
7E0000003F00
7F0000007F00
7F0000007F00
3F800000FE00
3FC00001FE00
1FC00003FC00
1FF00007FC00
0FF8000FF800
07FE003FF000
03FFFFFFE000
01FFFFFFC000
00FFFFFF8000
007FFFFE0000
001FFFFC0000
0003FFE00000
00001C000000
ENDCHAR
STARTCHAR 0032
ENCODING 50
SWIDTH 967 0
DWIDTH 43 0
BBX 41 46 1 -9
BITMAP
000008000000
00003E000000
00007F000000
00007F000000
00007F000000
00007F000000
00007F000000
00007F000000
00007F000000
00007E000000
3C003E003E00
7F003E007F00
7F803E00FF00
FFC03C01FF00
FFE01C03FF00
7FF01C07FF00
3FF81C0FFE00
1FFC181FF800
03FE183FE000
007F1CFE0000
0007FFF00000
0000FF800000
0000FF800000
00007F800000
0000FF800000
0007FFF00000
007FFEFF0000
03FF1C7FE000
0FFC1C1FFC00
3FF81C0FFE00
7FF01C0FFF00
7FE01C03FF00
FFC03E01FF80
7F803E00FF80
7F003E007F00
3C003E001E00
00007F000000
00007F000000
00007F000000
00007F000000
00007F000000
00007F000000
00007F000000
00007F000000
00003E000000
000018000000
ENDCHAR
STARTCHAR 0033
ENCODING 51
SWIDTH 967 0
DWIDTH 43 0
BBX 43 40 0 -6
BITMAP
000004000000
000004000000
00000E000000
00000E000000
00001F000000
00001F000000
00003F800000
00003F800000
00007FC00000
00007FC00000
0000FFE00000
0000FFE00000
0001FFF00000
000FFFFC0000
03FFFFFFF800
FFFFFFFFFFE0
3FFFFFFFFF80
1FFFFFFFFF00
0FFFFFFFFE00
07FFFFFFFC00
03FFFFFFF800
01FFFFFFF000
00FFFFFFE000
007FFFFFC000
003FFFFF8000
001FFFFF0000
001FFFFF0000
001FFFFF0000
003FFFFF8000
003FFFFF8000
003FFFFF8000
003FFFFF8000
003FFFFF8000
003FFBFF8000
007FE0FFC000
007F803FC000
007E000FC000
00780003C000
00600000C000
008000004000
ENDCHAR
STARTCHAR 0034
ENCODING 52
SWIDTH 967 0
DWIDTH 43 0
BBX 43 30 0 -1
BITMAP
3FFFFFFFFF80
1FFFFFFFFF00
4FFFFFFFFE40
E7FFFFFFFCE0
F3FFFFFFF9E0
F9FFFFFFF3E0
FCFFFFFFE7E0
FE7FFFFFCFE0
FF3FFFFF9FE0
FF9FFFFF3FE0
FFCFFFFE7FE0
FFE7FFFCFFE0
FFF3FFF9FFE0
FFF9FFF3FFE0
FFFCFFE7FFE0
FFFC7FCFFFE0
FFF93F97FFE0
FFFB9F3BFFE0
FFF7CE7DFFE0
FFEFE0FEFFE0
FFDFFFFF7FE0
FFBFFFFFBFE0
FF7FFFFFDFE0
FEFFFFFFEFE0
FDFFFFFFF7E0
FBFFFFFFFBE0
F7FFFFFFFDE0
EFFFFFFFFEC0
1FFFFFFFFF00
3FFFFFFFFF80
ENDCHAR
STARTCHAR 0035
ENCODING 53
SWIDTH 967 0
DWIDTH 43 0
BBX 42 33 0 -4
BITMAP
00000E0FC000
00003F0FC000
000071CFC000
0001C4EFC000
00038E3FC000
000F3F1FC000
001C7FC7C000
0039FFE3C000
00E3FFF8E000
01CFFFFC7000
071FFFFF1C00
0E3FFFFF8E00
38FFFFFFE780
71FFFFFFF1C0
C1FFFFFFF0C0
01FFFFFFF000
01FFFFFFF000
01FFFFFFF000
01FFC07FF000
01FFC07FF000
01FFC07FF000
01FFC07FF000
01FFC07FF000
01FFC07FF000
01FFC07FF000
01FFC07FF000
01FFC07FF000
01FFC07FF000
01FFC07FF000
01FFC07FF000
01FFC07FF000
01FFC07FF000
00FFC07FE000
ENDCHAR
STARTCHAR 0036
ENCODING 54
SWIDTH 967 0
DWIDTH 43 0
BBX 43 44 0 -8
BITMAP
01E00003C000
03F00007E000
03F80007F000
07F80007F000
03F80007F000
03F00007E000
01E00003C000
000000000000
1FFE001FF800
3FFF003FFC00
7FFF807FFE00
7FFFC07FFE00
FFFFC07FFF00
FFFFC0FFF700
FFFDC0EFF700
FFFDC0EFFF80
FFFDC1FFFB80
FFFDC1DFFB80
FFFDC1DFFB80
FFFDC1DFFDC0
FFFDC3FFFDC0
FFFDC3BFFDC0
FFFDC3BFFFE0
FFFDC3FFFEC0
EFFDC07FFE00
4FFC807FFF00
0FBC007FFF00
0FBC00FFFF00
0FBC00FFFF00
0FBC00FFFF80
0FBC000F7000
0FBC000F7000
0FBC000F7000
0FBC000F7000
0FBC000F7000
0FBC000F7000
0FBC000F7000
0FBC000F7000
0FBC000F7000
0FBC000F7000
0FBC000F7000
0FBC000F7000
0FBC000F7000
0738000F7000
ENDCHAR
STARTCHAR 0037
ENCODING 55
SWIDTH 967 0
DWIDTH 43 0
BBX 43 32 0 -2
BITMAP
000FF8000000
007FFF000000
00FE3F800000
03F80FE00000
07F807F00000
0FF007F80000
1FF007FC0000
1FF007FC0000
3FF007FE0000
3FF80FFE0000
7FFC1FFF0000
7C3F7F1F0000
701FFC070000
700FF8038000
E00FF8038000
E00FF8038000
E00FF8038000
E00FF8038000
701FFC078000
783FFE0F0000
7FFC1FFF0000
7FF80FFF0000
3FF007FE0000
3FF007FE0000
1FF007FC0000
1FF007FC0000
0FF007FC00C0
07F80FFC03E0
03FC1FEF1FC0
00FFFFCFFF80
007FFF07FC00
000FF800C000
ENDCHAR
STARTCHAR 0038
ENCODING 56
SWIDTH 967 0
DWIDTH 43 0
BBX 33 45 5 -9
BITMAP
7FFFFFFF00
FFFFFFFF80
FFFFFFFF80
F000000780
E000000380
E000000380
E000000380
E000000380
E000000380
E000000380
E000000380
F000000780
FFFFFFFF80
FFFFFFFF80
FFFFFFFF80
F07C1F0780
F07C1F0780
F07C1F0780
F07C1F0780
F07C1F0780
F07C1F0780
FFFFFFFF80
FFFFFFFF80
FFFFFFFF80
FFFFFFFF80
F07C1F0780
F07C1F0780
F07C1F0780
F07C1F0780
F07C1F0780
F07C1F0780
FFFFFFFF80
FFFFFFFF80
FFFFFFFF80
F07C1F0780
F07C1F0780
F07C1F0780
F07C1F0780
F07C1F0780
F07C1F0780
FFFFFFFF80
FFFFFFFF80
FFFFFFFF80
FFFFFFFF80
3FFFFFFE00
ENDCHAR
STARTCHAR 0039
ENCODING 57
SWIDTH 967 0
DWIDTH 43 0
BBX 43 40 0 -6
BITMAP
700000000000
F80000000000
7C0000000000
3E0000000000
1E0000000000
0F0FFFFFFFE0
078FFFFFFFC0
0387FFFFFFC0
0387FFFFFF80
01C7FFFFFF80
01C7FFFFFF00
01E7FFFFFF00
00E7FFFFFE00
00E3FFFFFE00
00E3FFFFFC00
00F3FFFFFC00
0073FFFFF800
0073FFFFF800
0073FFFFF800
0071FFFFF000
0079FFFFF000
003800000000
003800000000
003800000000
003800000000
003800000000
003FFFFFFE00
003FFFFFFF00
001FFFFFFE00
000000000000
000000000000
000000000000
003F0000FC00
007F8001FE00
007F8001FE00
007FC003FE00
007FC003FE00
007F8001FE00
003F8001FC00
001F0000F800
ENDCHAR
STARTCHAR 003A
ENCODING 58
SWIDTH 967 0
DWIDTH 43 0
BBX 43 42 0 -8
BITMAP
0000001FC000
000000FFF000
000001FFFC00
000003FFFE00
000007FFFF00
00000FFF0F00
00001FFE0780
00001FFE07C0
00001FFE07C0
00003FFE07C0
00003FFE07C0
00003FFF1FC0
00003FFFFFE0
00003FFFFFC0
00003FFFFFC0
00003FFFFFC0
00001FFFFFC0
00009FFFFF80
0000CFFFFF80
0001CFFFFF00
0003E7FFFE00
0007E3FFFC00
000FF0FFF800
001FFC7FE000
003FFE000000
007FFFC00000
00FFF8000000
01FFF8000000
03FFF8000000
07FFF8000000
0FFFC0000000
1FFFC0000000
3FF000000000
7FF000000000
7FF000000000
FFF000000000
FFF000000000
FFF000000000
7F8000000000
7F8000000000
3F8000000000
1F8000000000
ENDCHAR
STARTCHAR 003B
ENCODING 59
SWIDTH 967 0
DWIDTH 43 0
BBX 43 42 0 -7
BITMAP
00000E000000
00000E000000
00000E000000
00000E000000
00000E000000
00000E000000
00000E000000
00000E000000
00000E000000
00000E000000
00000E000000
00000E000000
00000E000000
00000E000000
00000E000000
00000E000000
00000E000000
00000E000000
00000E000000
FFFFFFFFFFE0
FFFFFFFFFFE0
FFFFFFFFFFE0
FFFFFFFFFFE0
00000E000000
00000E000000
00000E000000
00000E000000
00000E000000
00000E000000
00000E000000
00000E000000
00000E000000
00000E000000
00000E000000
00000E000000
00000E000000
00000E000000
00000E000000
00000E000000
00000E000000
00000E000000
00000E000000
ENDCHAR
STARTCHAR 003C
ENCODING 60
SWIDTH 967 0
DWIDTH 43 0
BBX 43 34 0 -3
BITMAP
00000E000000
00000E000000
00001F000000
00001F000000
00003F800000
00007FC00000
00007BC00000
0000FBE00000
0000F1E00000
0001E0F00000
0003E0F80000
0003C0780000
0007C07C0000
0007803C0000
000F001E0000
001F001F0000
001E000F0000
003E000F8000
003C00078000
00780007C000
00F80003E000
00F00001E000
01F00001F000
01E00000F000
03E00000F800
07C000007C00
078000003C00
0F8000003E00
0F0000001E00
1F0000001F00
3E0000000F00
3C0000000780
7C00000007C0
F800000003E0
ENDCHAR
STARTCHAR 003D
ENCODING 61
SWIDTH 967 0
DWIDTH 43 0
BBX 43 42 0 -7
BITMAP
0000FFE00000
0007FFFC0000
001F001F0000
007800038000
00E00000E000
01C000007000
038000003800
060000001C00
0E3FFF800E00
0C0FC7E00600
180F81F00300
180F80F80300
300F807C0180
300F807C0180
600F807C00C0
600F807C00C0
600F807C00C0
400F807800C0
C00F80F80040
C00F83F00060
C00FFFC00060
C00FFF000060
C00F8F000060
C00F8F800040
400F87C000C0
600F83C000C0
600F81E000C0
600F81F000C0
300F80F80180
300F80780180
180F807C0300
180F803E0300
0C1FE01F0600
0E7FF00F8E00
070000001C00
038000003800
01C000007000
00E00001E000
007800038000
001F001F0000
0007FFFC0000
0000FFE00000
ENDCHAR
STARTCHAR 003E
ENCODING 62
SWIDTH 967 0
DWIDTH 43 0
BBX 43 42 0 -7
BITMAP
0000FFC00000
0007FFFC0000
001F001F0000
003800078000
00E00001E000
01C000007000
038000003800
070007811C00
0E00FFF30E00
0C03C03F0600
1807800F0300
180F00070300
301E00030180
303C00030180
607C000100C0
6078000180C0
6078000000C0
40F8000000C0
C0F800000040
C0F800000060
C0F800000060
C0F800000060
C0F800000060
C0F800000040
40F8000000C0
60F8000000C0
607C000000C0
607C000000C0
303E00018180
301E00030180
180F00060300
1807C00C0300
0C03F8F80600
0E00FFE00E00
070000001C00
038000003800
01C000007000
00E00001E000
007800038000
001F001F0000
0007FFFC0000
0000FFE00000
ENDCHAR
STARTCHAR 003F
ENCODING 63
SWIDTH 967 0
DWIDTH 43 0
BBX 43 42 0 -7
BITMAP
00007FC00000
0007FFFC0000
001FFFFF0000
003FFFFF8000
00FFFFFFE000
01FF001FF000
03FC0007F800
07F00001FC00
0FE00000FC00
0FC000007E00
1F8000003F00
1F0000001F00
3E0000001F80
3E0000000F80
7C00000007C0
7C00000007C0
7C00000007C0
7800000007C0
7800000003C0
F800000003C0
F800000003E0
F800000003E0
F800000003E0
7800000003C0
7800000003C0
7C00000007C0
7C00000007C0
7C00000007C0
3E0000000F80
3E0000000F80
1F0000001F00
1F8000003F00
0FC000007E00
0FE00000FE00
07F00001FC00
03FC0007F800
01FF001FF000
00FFFFFFE000
007FFFFF8000
001FFFFF0000
0007FFFC0000
0000FFE00000
ENDCHAR
STARTCHAR 0040
ENCODING 64
SWIDTH 967 0
DWIDTH 43 0
BBX 43 42 0 -7
BITMAP
000004000000
000004000000
00000E000000
00000E000000
00001F000000
00001F000000
00003F800000
00003F800000
00007FC00000
00007FC00000
0000FFE00000
0000FFE00000
0001FFF00000
0001FFF00000
0003FFF80000
0003FFF80000
0007FFFC0000
0007FFFC0000
000FFFFE0000
000FFFFE0000
001FFFFF0000
001FFFFF0000
003FFFFF8000
003FFFFF8000
007FFFFFC000
007FFFFFC000
00FFFFFFE000
00FFFFFFE000
01FFFFFFF000
01FFFFFFF000
03FFFFFFF800
03FFFFFFF800
07FFFFFFFC00
07FFFFFFFC00
0FFFFFFFFE00
0FFFFFFFFE00
1FFFFFFFFF00
1FFFFFFFFF00
3FFFFFFFFF80
3FFFFFFFFF80
7FFFFFFFFFC0
FFFFFFFFFFE0
ENDCHAR
STARTCHAR 0041
ENCODING 65
SWIDTH 967 0
DWIDTH 43 0
BBX 43 40 0 -6
BITMAP
C00080000000
E000C0000000
F000E0000000
FC00F8000000
FE00FC000000
FF00FE000000
FFC0FF800000
FFE0FFC00000
FFF0FFE00000
FFFCFFF80000
FFFE7FFC0000
FFFF3FFE0000
FFFF8FFF8000
FFFFE7FFC000
FFFFF3FFE000
FFFFF8FFF800
FFFFFE7FFC00
FFFFFF3FFE00
FFFFFF8FFF80
FFFFFFE7FFE0
FFFFFFE7FFC0
FFFFFF9FFF80
FFFFFF3FFE00
FFFFFE7FFC00
FFFFF9FFF800
FFFFF3FFE000
FFFFE7FFC000
FFFF9FFF8000
FFFF3FFE0000
FFFE7FFC0000
FFF8FFF80000
FFF0FFE00000
FFE0FFC00000
FF80FF800000
FF00FE000000
FE00FC000000
F800F8000000
F000E0000000
E000C0000000
800080000000
ENDCHAR
STARTCHAR 0042
ENCODING 66
SWIDTH 967 0
DWIDTH 43 0
BBX 37 45 3 -9
BITMAP
C000001FF8
E000001FF8
F800001FF8
FE00001FF8
FF00001FF8
FFC0001FF8
FFF0001FF8
FFF8001FF8
FFFE001FF8
FFFF001FF8
FFFFC01FF8
FFFFF01FF8
FFFFF81FF8
FFFFFE1FF8
FFFFFF9FF8
FFFFFFDFF8
FFFFFFFFF8
FFFFFFFFF8
FFFFFFFFF8
FFFFFFFFF8
FFFFFFFFF8
FFFFFFFFF8
FFFFFFFFF8
FFFFFFFFF8
FFFFFFFFF8
FFFFFFFFF8
FFFFFFFFF8
FFFFFFFFF8
FFFFFFDFF8
FFFFFF9FF8
FFFFFE1FF8
FFFFF81FF8
FFFFF01FF8
FFFFC01FF8
FFFF801FF8
FFFE001FF8
FFF8001FF8
FFF0001FF8
FFC0001FF8
FF00001FF8
FE00001FF8
F800001FF8
E000001FF8
C000001FF8
8000001FF8
ENDCHAR
STARTCHAR 0043
ENCODING 67
SWIDTH 967 0
DWIDTH 43 0
BBX 33 45 5 -9
BITMAP
FFFC1FFF80
FFFC1FFF80
FFFC1FFF80
FFFC1FFF80
FFFC1FFF80
FFFC1FFF80
FFFC1FFF80
FFFC1FFF80
FFFC1FFF80
FFFC1FFF80
FFFC1FFF80
FFFC1FFF80
FFFC1FFF80
FFFC1FFF80
FFFC1FFF80
FFFC1FFF80
FFFC1FFF80
FFFC1FFF80
FFFC1FFF80
FFFC1FFF80
FFFC1FFF80
FFFC1FFF80
FFFC1FFF80
FFFC1FFF80
FFFC1FFF80
FFFC1FFF80
FFFC1FFF80
FFFC1FFF80
FFFC1FFF80
FFFC1FFF80
FFFC1FFF80
FFFC1FFF80
FFFC1FFF80
FFFC1FFF80
FFFC1FFF80
FFFC1FFF80
FFFC1FFF80
FFFC1FFF80
FFFC1FFF80
FFFC1FFF80
FFFC1FFF80
FFFC1FFF80
FFFC1FFF80
FFFC1FFF80
FFFC1FFF80
ENDCHAR
STARTCHAR 0044
ENCODING 68
SWIDTH 967 0
DWIDTH 43 0
BBX 37 45 3 -9
BITMAP
C000000000
E000000000
F800000000
FC00000000
FF00000000
FFC0000000
FFE0000000
FFF8000000
FFFE000000
FFFF000000
FFFFC00000
FFFFF00000
FFFFF80000
FFFFFE0000
FFFFFF0000
FFFFFFC000
FFFFFFF000
FFFFFFF800
FFFFFFFE00
FFFFFFFF80
FFFFFFFFC0
FFFFFFFFF0
FFFFFFFFF8
FFFFFFFFE0
FFFFFFFF80
FFFFFFFE00
FFFFFFFC00
FFFFFFF000
FFFFFFC000
FFFFFF8000
FFFFFE0000
FFFFF80000
FFFFF00000
FFFFC00000
FFFF800000
FFFE000000
FFF8000000
FFF0000000
FFC0000000
FF00000000
FE00000000
F800000000
E000000000
C000000000
8000000000
ENDCHAR
STARTCHAR 0045
ENCODING 69
SWIDTH 967 0
DWIDTH 43 0
BBX 43 42 0 -7
BITMAP
00007FC00000
0007FFF80000
001FFFFF0000
003FFFFF8000
00FFFFFFE000
01FFFFFFF000
03FFFFFFF800
07FFFFFFFC00
07FFFFFFFC00
0FFFFFFFFE00
1FFFFFFFFF00
1FFFFFFFFF00
3FFFC07FFF80
3FFF001FFF80
7FFE000FFFC0
7FFC0007FFC0
7FF80003FFC0
7FF80003FFC0
7FF80003FFC0
FFF00001FFE0
FFF00001FFE0
FFF00001FFE0
FFF00001FFC0
7FF80003FFC0
7FF80003FFC0
7FF80003FFC0
7FFC0007FFC0
7FFE000FFFC0
3FFF001FFF80
3FFFC07FFF80
1FFFFFFFFF00
1FFFFFFFFF00
0FFFFFFFFE00
0FFFFFFFFC00
07FFFFFFFC00
03FFFFFFF800
01FFFFFFF000
00FFFFFFE000
003FFFFF8000
001FFFFF0000
0007FFFC0000
0000FFE00000
ENDCHAR
STARTCHAR 0046
ENCODING 70
SWIDTH 967 0
DWIDTH 43 0
BBX 42 42 1 -7
BITMAP
FFFFFFFFFFC0
FFFFFFFFFFC0
FFFFFFFFFFC0
FFFFFFFFFFC0
FFFFFFFFFFC0
FFFFFFFFFFC0
FFFFFFFFFFC0
FFFFFFFFFFC0
FFFFFFFFFFC0
FFFFFFFFFFC0
FFFFFFFFFFC0
FFFFFFFFFFC0
FFFFFFFFFFC0
FFFFFFFFFFC0
FFFFFFFFFFC0
FFFFFFFFFFC0
FFFFFFFFFFC0
FFFFFFFFFFC0
FFFFFFFFFFC0
FFFFFFFFFFC0
FFFFFFFFFFC0
FFFFFFFFFFC0
FFFFFFFFFFC0
FFFFFFFFFFC0
FFFFFFFFFFC0
FFFFFFFFFFC0
FFFFFFFFFFC0
FFFFFFFFFFC0
FFFFFFFFFFC0
FFFFFFFFFFC0
FFFFFFFFFFC0
FFFFFFFFFFC0
FFFFFFFFFFC0
FFFFFFFFFFC0
FFFFFFFFFFC0
FFFFFFFFFFC0
FFFFFFFFFFC0
FFFFFFFFFFC0
FFFFFFFFFFC0
FFFFFFFFFFC0
FFFFFFFFFFC0
FFFFFFFFFFC0
ENDCHAR
STARTCHAR 0047
ENCODING 71
SWIDTH 967 0
DWIDTH 43 0
BBX 37 45 3 -9
BITMAP
FFC0000018
FFC0000038
FFC00000F8
FFC00003F8
FFC00007F8
FFC0001FF8
FFC0003FF8
FFC000FFF8
FFC003FFF8
FFC007FFF8
FFC01FFFF8
FFC07FFFF8
FFC0FFFFF8
FFC3FFFFF8
FFCFFFFFF8
FFDFFFFFF8
FFFFFFFFF8
FFFFFFFFF8
FFFFFFFFF8
FFFFFFFFF8
FFFFFFFFF8
FFFFFFFFF8
FFFFFFFFF8
FFFFFFFFF8
FFFFFFFFF8
FFFFFFFFF8
FFFFFFFFF8
FFFFFFFFF8
FFDFFFFFF8
FFCFFFFFF8
FFC3FFFFF8
FFC1FFFFF8
FFC07FFFF8
FFC01FFFF8
FFC00FFFF8
FFC003FFF8
FFC000FFF8
FFC0007FF8
FFC0001FF8
FFC00007F8
FFC00003F8
FFC00000F8
FFC0000038
FFC0000018
FFC0000008
ENDCHAR
STARTCHAR 0048
ENCODING 72
SWIDTH 967 0
DWIDTH 43 0
BBX 43 40 0 -6
BITMAP
000000200060
0000006000E0
000000E001E0
000003E007E0
000007E00FE0
00000FE01FE0
00003FE07FE0
00007FE0FFE0
0000FFE1FFE0
0003FFE7FFE0
0007FFCFFFE0
000FFF9FFFE0
003FFE7FFFE0
007FFCFFFFE0
00FFF9FFFFE0
03FFE7FFFFE0
07FFCFFFFFE0
0FFF9FFFFFE0
3FFE7FFFFFE0
FFFCFFFFFFE0
7FFCFFFFFFE0
3FFE3FFFFFE0
0FFF9FFFFFE0
07FFCFFFFFE0
03FFE3FFFFE0
00FFF9FFFFE0
007FFCFFFFE0
003FFE7FFFE0
000FFF9FFFE0
0007FFCFFFE0
0003FFE7FFE0
0000FFE1FFE0
00007FE0FFE0
00003FE07FE0
00000FE01FE0
000007E00FE0
000003E007E0
000000E001E0
0000006000E0
000000200060
ENDCHAR
STARTCHAR 0049
ENCODING 73
SWIDTH 967 0
DWIDTH 43 0
BBX 42 42 1 -7
BITMAP
F10000000000
F1C000000000
F1E000000000
F1F800000000
F1F800000000
F1F800000000
F1F840000000
F1F860000000
F1F878000000
F1F87E000000
F1F87F000000
F1F87FC00000
F1F87FF00000
F1F87FF80000
F1F87FFE0000
F1F87FFF8000
F1F87FFFC000
F1F87FFFF000
F1F87FFFF800
F1F87FFFFE00
F1F87FFFFF80
F1F87FFFFFC0
F1F87FFFFE00
F1F87FFFFC00
F1F87FFFF000
F1F87FFFC000
F1F87FFF8000
F1F87FFE0000
F1F87FF80000
F1F87FF00000
F1F87FC00000
F1F87F000000
F1F87E000000
F1F878000000
F1F860000000
F1F840000000
F1F800000000
F1F800000000
F1F800000000
F1E000000000
F1C000000000
F10000000000
ENDCHAR
STARTCHAR 004A
ENCODING 74
SWIDTH 967 0
DWIDTH 43 0
BBX 43 42 0 -7
BITMAP
000004000000
000004000000
00000E000000
00001F000000
00003F800000
00003F800000
00007FC00000
0000FFE00000
0001FFF00000
0001FFF00000
0003FFF80000
0007FFFC0000
000FFFFE0000
000FFFFE0000
001FFFFF0000
003FFFFF8000
007FFFFFC000
007FFFFFC000
00FFFFFFE000
01FFFFFFF000
03FFFFFFF800
03FFFFFFF800
07FFFFFFFC00
0FFFFFFFFE00
1FFFFFFFFF00
3FFFFFFFFF80
3FFFFFFFFF80
7FFFFFFFFFC0
800000000020
000000000000
000000000000
FFFFFFFFFFE0
FFFFFFFFFFE0
FFFFFFFFFFE0
FFFFFFFFFFE0
FFFFFFFFFFE0
FFFFFFFFFFE0
FFFFFFFFFFE0
FFFFFFFFFFE0
FFFFFFFFFFE0
FFFFFFFFFFE0
FFFFFFFFFFE0
ENDCHAR
STARTCHAR 004B
ENCODING 75
SWIDTH 967 0
DWIDTH 43 0
BBX 43 43 0 -7
BITMAP
000000003C00
000000007C00
00000000FC00
00000000FC00
00000001FC00
00000001F800
00000003F000
00000007F000
00000007E000
0000000FE000
0000000FC000
0000001FC000
0000001F8000
1FFFFFFF0000
1FFFFFFF0000
3FFFFFFF0000
7FFFFFFF0000
FFFFFFFF8000
0FFFFFFF8000
007FFFFFC000
0003FFFFE000
00001FFFE000
00000FFFF000
00000FFFF000
00001FFFF800
00001F9FF800
00003F8FFC00
00003F07FE00
00007E03FE00
00007C03FF00
0000FC01FF00
0003F800FF80
003FF0007F80
007FF0003FC0
00FFF0001FE0
007FF8000FC0
0007F8000780
0000F8000780
00007C000300
00007C000100
000038000000
000010000000
000010000000
ENDCHAR
STARTCHAR 004C
ENCODING 76
SWIDTH 967 0
DWIDTH 43 0
BBX 37 46 3 -9
BITMAP
0000000400
0000000400
0000000C00
0000000C00
0000001E00
0007F01E00
003FFFFF00
00FFFFFF00
03FFFFFF00
07FFFFFF80
0FFFFFFF80
1FC07FFFC0
1E000FFFC0
300003FFE0
400007FFE0
000007FFE0
00000FFFF0
00001FFFF0
00001FFFF8
00003FF000
0000700000
0000000000
0000000000
0000000000
0000000000
0000700000
003FE00000
BFFFC00000
7FFFC00000
7FFF800000
3FFF000000
3FFF000010
3FFE000060
1FFF8003C0
1FFFE01FC0
0FFFFFFF80
0FFFFFFF00
0FFFFFFE00
07FFFFF800
07FFFFF000
03C0FF0000
03C0000000
0380000000
0180000000
0100000000
0100000000
ENDCHAR
STARTCHAR 004D
ENCODING 77
SWIDTH 967 0
DWIDTH 43 0
BBX 43 36 0 -4
BITMAP
0003FE000000
001FFFC00000
007FFFF00000
00FFFFF80000
03FFFFFC0000
07FF0FFE0000
0FF800FF0000
0FE0007F8000
1FC0001FC000
3F80000FC000
3F00000FE000
7E000007E000
7E000003F000
7E000003F000
7C0000FFFFE0
FC00007FFFC0
FC00003FFF80
FC00001FFF00
FC00000FFE00
FC00000FFC00
FC000007F800
7C000003F800
7E000001F000
7E000000E000
3F0000004000
3F0000000000
3F8000000000
1FC000000000
0FE000400000
07F801E00000
07FF9FE00000
03FFFFF00000
00FFFFF00000
007FFFE00000
001FFF800000
0003FC000000
ENDCHAR
STARTCHAR 004E
ENCODING 78
SWIDTH 967 0
DWIDTH 43 0
BBX 42 30 0 -1
BITMAP
000000001E00
000000003F00
000000007F80
00000000FFC0
00000001FFC0
00000003FFC0
00000007FFC0
0000000FFF80
0000001FFF00
1F00003FFE00
3F80007FFC00
7FC000FFF800
7FE001FFF000
FFF003FFE000
7FF807FFC000
7FFC0FFF8000
3FFE1FFF0000
1FFF3FFE0000
0FFFFFFC0000
07FFFFF80000
03FFFFF00000
01FFFFE00000
00FFFFC00000
007FFF800000
003FFF000000
001FFE000000
000FFC000000
0007F8000000
0003F0000000
0001E0000000
ENDCHAR
STARTCHAR 004F
ENCODING 79
SWIDTH 967 0
DWIDTH 43 0
BBX 43 42 0 -7
BITMAP
3FE000000000
7FFE00000000
7FFFC0000000
FFFFF0000000
FFFFFC000000
7FFFFF000000
7FFFFFC00000
1FFFFFE00000
001FFFF00000
0003FFFC0000
00007FFE0000
00001FFF0000
1E000FFF8000
3FF003FFC000
7FFE01FFC000
FFFF80FFE000
FFFFC03FF000
7FFFF01FF000
7FFFF81FF800
3FFFFC0FFC00
00FFFE07FC00
001FFF03FE00
0007FF83FE00
0001FFC1FF00
0000FFC1FF00
00007FE0FF00
00003FE0FF80
00001FF07F80
07C01FF07F80
1FF00FF87FC0
3FF807F83FC0
7FFC07F83FC0
7FFC07FC3FC0
7FFC03FC3FC0
FFFE03FC3FC0
FFFE03FC1FC0
7FFC03FC1FC0
7FFC03FC1FE0
7FFC03FC1FC0
3FF801FC1FC0
1FF001F81FC0
07C000F00780
ENDCHAR
STARTCHAR 0050
ENCODING 80
SWIDTH 967 0
DWIDTH 43 0
BBX 39 45 2 -9
BITMAP
0003FF8000
000FFFE000
003FFFF800
007FFFFC00
00FFFFFE00
01FFFFFF00
03FF83FF80
07FE00FF80
07F8003FC0
0FF0001FC0
0FE0001FE0
0FE0000FE0
0FC00007E0
1FC00007F0
1FC00007F0
1FC00007F0
1FC00007F0
1FC00007F0
1FC00007F0
1FC00007F0
FFFFFFFFFE
FFFFFFFFFE
FFFFFFFFFE
FFFFFFFFFE
FFFFFFFFFE
FFFFCFFFFE
FFFF83FFFE
FFFF03FFFE
FFFF03FFFE
FFFF83FFFE
FFFF83FFFE
FFFFC7FFFE
FFFFC7FFFE
FFFFC7FFFE
FFFFC7FFFE
FFFF87FFFE
FFFF87FFFE
FFFF83FFFE
FFFF83FFFE
FFFFFFFFFE
FFFFFFFFFE
FFFFFFFFFE
FFFFFFFFFE
FFFFFFFFFE
FFFFFFFFFE
ENDCHAR
STARTCHAR 0051
ENCODING 81
SWIDTH 967 0
DWIDTH 43 0
BBX 43 42 0 -7
BITMAP
007FFFFFC000
007FFFFFC000
007FFFFFC000
007FFFFFC000
007FFFFFC000
007FFFFFC000
007FFFFFC000
007FFFFFC000
007FFFFFC000
007FFFFFC000
007FFFFFC000
007FFFFFC000
007FFFFFC000
007FFFFFC000
007FFFFFC000
000006000000
000006000000
000006000000
000006000000
000006000000
000006000000
000006000000
007FFFFFE000
004000006000
004000006000
004000006000
004000006000
FFFFC07FFFE0
FFFFC07FFFE0
FFFFC07FFFE0
FFFFC07FFFE0
FFFFC07FFFE0
FFFFC07FFFE0
FFFFC07FFFE0
FFFFC07FFFE0
FFFFC07FFFE0
FFFFC07FFFE0
FFFFC07FFFE0
FFFFC07FFFE0
FFFFC07FFFE0
FFFFC07FFFE0
FFFFC07FFFE0
ENDCHAR
STARTCHAR 0052
ENCODING 82
SWIDTH 967 0
DWIDTH 43 0
BBX 43 26 0 1
BITMAP
000080000000
0000E0000000
0000F8000000
00007C000000
00003E000000
01FFFF0FF000
07FFFFCFFC00
0FFFFFCFFE00
1FFFFFCFFF00
3FFFFF8FFF80
3F807E003F80
7E007C000FC0
7E00F80007C0
7C00E00007C0
FC00C00007E0
FC00000007E0
FC00000007E0
7C00000007C0
7E0000000FC0
7F0000001FC0
3FFFFFFFFF80
3FFFFFFFFF80
1FFFFFFFFF00
0FFFFFFFFE00
03FFFFFFF800
003FFFFF8000
ENDCHAR
STARTCHAR 0053
ENCODING 83
SWIDTH 967 0
DWIDTH 43 0
BBX 43 36 0 -4
BITMAP
0000000C0000
0000001E0000
0000003F0000
0000007F8000
000000FFC000
000001FFE000
000003FFF000
FFFFE7FFF800
FFFFCFFFFC00
FFFF9FFFFE00
FFFF3FFFFF00
FFFE7FFFFF80
FFFEFFFFFFC0
FFFEFF3FBFC0
FF00FC3F8FC0
FE00603F81C0
FCFF0FBFBC20
FCFFFFBFBFE0
FDFFFFBFBFC0
F9FFFFBFBFC0
F9FFFFBFBFC0
FBFFFFBFBF80
FBFFFFBFBF80
F3FFFFBFBF80
F3FFFFBFBF80
F7FFFFBFBF00
E7FFFFBFBF00
E7FFFFBF7F00
EFFFFFDF7E00
EFFFFFE0FE00
CFFFFFFFFE00
CFFFFFFFFE00
5FFFFFFFFC00
1FFFFFFFFC00
1FFFFFFFFC00
0FFFFFFFF000
ENDCHAR
STARTCHAR 0054
ENCODING 84
SWIDTH 967 0
DWIDTH 43 0
BBX 43 42 0 -7
BITMAP
0000FFC00000
0007FFF80000
001FFFFF0000
003FFFFF8000
00FFFFFFE000
01FFFFFFF000
03FFE0FFF800
07FE001FFC00
0FFC0007FC00
0FF80001FE00
1FFC0000FF00
1FFE00007F00
3FBF00007F80
3F9F80003F80
7F0FC0001F80
7F07E0001FC0
7E03F0001FC0
7E01F8000FC0
FE00FC000FC0
FE007E000FC0
FE003F000FC0
FE001F800FE0
FE000FC00FC0
FE0007E00FC0
7E0003F00FC0
7E0001F81FC0
7F0000FC1FC0
7F00007E1F80
3F80003F3F80
3F80001FBF80
3FC0000FFF00
1FE00007FF00
0FF00003FE00
0FF80007FC00
07FE001FFC00
03FFC0FFF800
01FFFFFFF000
00FFFFFFE000
003FFFFF8000
001FFFFF0000
0007FFFC0000
0000FFE00000
ENDCHAR
STARTCHAR 0055
ENCODING 85
SWIDTH 967 0
DWIDTH 43 0
BBX 43 38 0 -5
BITMAP
000004000000
00000E000000
00001E000000
00001E000000
00003E000000
00007E000000
0000FE000000
0001FE000000
0003FE000000
0007FE000000
000FFE000000
7FFFFE000000
FFFFFE000000
FFFFFE000000
FFFFFE000000
FFFFFE000000
FFFFFE000000
FFFFFE1FFFE0
FFFFFE1FFFE0
FFFFFE1FFFE0
FFFFFE1FFFE0
FFFFFE000000
FFFFFE000000
FFFFFE000000
FFFFFE000000
FFFFFE000000
001FFE000000
000FFE000000
0007FE000000
0003FE000000
0001FE000000
0000FE000000
00007E000000
00003E000000
00001E000000
00000E000000
00000E000000
000004000000
ENDCHAR
STARTCHAR 0056
ENCODING 86
SWIDTH 967 0
DWIDTH 43 0
BBX 43 38 0 -5
BITMAP
000003000000
000007000000
00000F000000
00001F000000
00003F000000
00007F000000
0000FF000000
0001FF000000
0003FF000000
0007FF000000
000FFF000000
7FFFFF00F800
FFFFFF00F800
FFFFFF00F800
FFFFFF00F800
FFFFFF00F800
FFFFFF00F800
FFFFFF1FFFE0
FFFFFF1FFFE0
FFFFFF1FFFE0
FFFFFF1FFFE0
FFFFFF1FFFC0
FFFFFF00F800
FFFFFF00F800
FFFFFF00F800
FFFFFF00F800
7FFFFF00F800
000FFF000000
0007FF000000
0003FF000000
0001FF000000
0000FF000000
00007F000000
00003F000000
00001F000000
00000F000000
000007000000
000003000000
ENDCHAR
STARTCHAR 0057
ENCODING 87
SWIDTH 967 0
DWIDTH 43 0
BBX 43 42 0 -7
BITMAP
000000008000
03FE000FF800
0FFF003FFE00
1FFFC07FFF00
3FFFE0FFFF80
7FFFE1FFFF80
7FFFF1FFFFC0
7FFFFBFFFFC0
FFFFFFFFFFC0
FFFFFFFFFFE0
FFFFFFFFFFE0
7FFFFFFFFFE0
7FFFFFFFFFC0
7FFFFFFFFFC0
7FFFFFFFFFC0
3FFFFFFFFF80
1FFFFFFFFF80
1FFFFFFFFF00
0FFFFFFFFE00
07FFFFFFFE00
03FFFFFFFC00
01FFFFFFF800
00FFFFFFF000
007FFFFFE000
003FFFFFC000
001FFFFF8000
000FFFFF0000
0007FFFE0000
0003FFFC0000
0001FFF80000
0000FFF00000
00007FE00000
00003FC00000
00003FC00000
00001F800000
00000F000000
00000E000000
000006000000
000004000000
000004000000
000004000000
000004000000
ENDCHAR
STARTCHAR 0058
ENCODING 88
SWIDTH 967 0
DWIDTH 43 0
BBX 35 46 4 -9
BITMAP
0040000000
00F0000000
00F0000000
00F0000000
00F0000000
00F0000000
00F0000000
00F0000000
00F0000000
00F0000000
00F0000000
00F0000000
00F0000000
00F0E00000
00F1F00000
00F1F0C000
00F1F1E000
00F1F1E1C0
00F1F1E3E0
70F1F1E3E0
F8F1F1F3E0
F8FFFFFFE0
F8FFFFFFE0
F8FFFFFFE0
F8FFFFFFE0
F8FFFFFFE0
F8FFFFFFE0
F8FFFFFFE0
F9FFFFFFE0
FFFFFFFFE0
FFFFFFFFE0
FFFFFFFFE0
FFFFFFFFE0
7FFFFFFFE0
7FFFFFFFE0
3FFFFFFFE0
1FFFFFFFE0
1FFFFFFFE0
0FFFFFFFE0
07FFFFFFE0
07FFFFFFE0
03FFFFFFE0
03FFFFFFE0
01FFFFFFE0
00FFFFFFC0
003FFFFF00
ENDCHAR
STARTCHAR 0059
ENCODING 89
SWIDTH 967 0
DWIDTH 43 0
BBX 32 45 5 -8
BITMAP
0003C000
0003E000
0003E000
0003E000
00E3E780
01F3E780
01F3E780
01F3E780
01F3E780
01F3E78F
01F3E78F
01F3E78F
01F3E78F
01F3E78F
01F3E78F
01F3E78F
01F3E78F
01F3E78F
01F3E78F
01F3E78F
01F3E78F
79F3E78F
F9FFFFFF
F9FFFFFF
F9FFFFFF
F9FFFFFF
F9FFFFFF
F9FFFFFF
F9FFFFFF
F9FFFFFF
FFFFFFFF
7FFFFFFF
7FFFFFFF
7FFFFFFF
3FFFFFFF
3FFFFFFF
1FFFFFFF
0FFFFFFF
0FFFFFFF
07FFFFFF
03FFFFFF
03FFFFFF
01FFFFFF
00FFFFFE
003FFFF8
ENDCHAR
STARTCHAR 005A
ENCODING 90
SWIDTH 967 0
DWIDTH 43 0
BBX 43 44 0 -8
BITMAP
000000001000
000000003800
000001803C00
000003C01C00
000003C01E00
000007C00E00
00000FC00F00
00001FC30F00
00003FC78700
00007FC78780
0000FFC38780
0001FFC3C780
0003FFC3C7C0
0007FFC3C3C0
7FFFFFC1C3C0
FFFFFFC1E3C0
FFFFFFC1E3C0
FFFFFFC1E3C0
FFFFFFC1E3E0
FFFFFFC1E3E0
FFFFFFC1E3E0
FFFFFFC1E3E0
FFFFFFC1E3E0
FFFFFFC1E3E0
FFFFFFC1E3E0
FFFFFFC1E3E0
FFFFFFC1E3C0
FFFFFFC1E3C0
FFFFFFC1E3C0
FFFFFFC1C3C0
FFFFFFC3C3C0
0007FFC3C7C0
0007FFC3C780
0003FFC38780
0001FFC78780
0000FFC70F00
00007FC70F00
00003FC00F00
00001FC01E00
00000FC01E00
000007C01C00
000003C03C00
000001801800
000001000000
ENDCHAR
STARTCHAR 005B
ENCODING 91
SWIDTH 967 0
DWIDTH 43 0
BBX 41 42 1 -7
BITMAP
800000000000
C00000000000
F00000000000
FC0000000000
FF0000000000
FFC000000000
FFF000000000
FFFC00000000
FFFF00000000
FFFFC0000000
FFFFF0000000
FFFFFC000000
FFFFFF000000
FFFFFFC00000
FFFFFFF00000
FFFFFFFC0000
FFFFFFFF0000
FFFFFFFFC000
FFFFFFFFF000
FFFFFFFFFC00
FFFFFFFFFF00
FFFFFFFFFF80
FFFFFFFFFC00
FFFFFFFFF000
FFFFFFFFC000
FFFFFFFF0000
FFFFFFFC0000
FFFFFFF00000
FFFFFFC00000
FFFFFF000000
FFFFFC000000
FFFFF0000000
FFFFC0000000
FFFF00000000
FFFC00000000
FFF000000000
FFC000000000
FF0000000000
FC0000000000
F00000000000
C00000000000
800000000000
ENDCHAR
STARTCHAR 005C
ENCODING 92
SWIDTH 967 0
DWIDTH 43 0
BBX 43 42 0 -7
BITMAP
FFFFFFFFFFE0
7FFFFFFFFFC0
3FFFFFFFFF80
3FFFFFFFFF80
1FFFFFFFFF00
1FFFFFFFFF00
0FFFFFFFFE00
0FFFFFFFFE00
07FFFFFFFC00
07FFFFFFFC00
03FFFFFFF800
03FFFFFFF800
01FFFFFFF000
01FFFFFFF000
00FFFFFFE000
00FFFFFFE000
007FFFFFC000
007FFFFFC000
003FFFFF8000
003FFFFF8000
001FFFFF0000
001FFFFF0000
000FFFFE0000
000FFFFE0000
0007FFFC0000
0007FFFC0000
0003FFF80000
0003FFF80000
0001FFF00000
0001FFF00000
0000FFE00000
0000FFE00000
00007FC00000
00007FC00000
00003F800000
00003F800000
00001F000000
00001F000000
00000E000000
00000E000000
000004000000
000004000000
ENDCHAR
STARTCHAR 005D
ENCODING 93
SWIDTH 967 0
DWIDTH 43 0
BBX 43 42 0 -7
BITMAP
000000000020
0000000000E0
0000000003E0
000000000FE0
000000003FE0
00000000FFE0
00000003FFE0
0000000FFFE0
0000003FFFE0
000000FFFFE0
000003FFFFE0
00000FFFFFE0
00003FFFFFE0
0000FFFFFFE0
0003FFFFFFE0
000FFFFFFFE0
003FFFFFFFE0
00FFFFFFFFE0
03FFFFFFFFE0
0FFFFFFFFFE0
3FFFFFFFFFE0
FFFFFFFFFFE0
1FFFFFFFFFE0
07FFFFFFFFE0
01FFFFFFFFE0
007FFFFFFFE0
001FFFFFFFE0
0007FFFFFFE0
0001FFFFFFE0
00007FFFFFE0
00001FFFFFE0
000007FFFFE0
000001FFFFE0
0000007FFFE0
0000001FFFE0
00000007FFE0
00000001FFE0
000000007FE0
000000001FE0
0000000007E0
0000000001E0
000000000060
ENDCHAR
STARTCHAR 005E
ENCODING 94
SWIDTH 967 0
DWIDTH 43 0
BBX 43 15 0 6
BITMAP
010000001000
020000000800
060000000C00
0E0000000E00
1C0000000700
3FFFFFFFFF80
7FFFFFFFFFC0
FFFFFFFFFFE0
3FFFFFFFFF80
1C0000000700
0E0000000E00
060000000C00
020000000800
010000001000
010000001000
ENDCHAR
STARTCHAR 005F
ENCODING 95
SWIDTH 967 0
DWIDTH 43 0
BBX 16 45 13 -9
BITMAP
0180
03C0
07E0
0FF0
1FF8
3FFC
73C6
83C1
03C0
03C0
03C0
03C0
03C0
03C0
03C0
03C0
03C0
03C0
03C0
03C0
03C0
03C0
03C0
03C0
03C0
03C0
03C0
03C0
03C0
03C0
03C0
03C0
03C0
03C0
03C0
03C0
83C0
63C3
3FDE
1FFC
0FF8
07F0
03E0
01C0
0080
ENDCHAR
STARTCHAR 0060
ENCODING 96
SWIDTH 967 0
DWIDTH 43 0
BBX 16 45 14 -9
BITMAP
03C0
03C0
03C0
03C0
03C0
03C0
03C0
03C0
03C0
03C0
03C0
03C0
03C0
03C0
03C0
03C0
03C0
03C0
03C0
03C0
03C0
03C0
03C0
03C0
03C0
03C0
03C0
03C0
03C0
03C0
03C0
03C0
03C0
03C0
03C0
03C0
03C1
E3C6
3FFC
1FF8
1FF0
0FE0
07C0
0380
0100
ENDCHAR
STARTCHAR 0061
ENCODING 97
SWIDTH 967 0
DWIDTH 43 0
BBX 43 24 0 2
BITMAP
000000000800
000000001800
0001F8001800
000FFF803800
001FFFE03800
007FFFF87C00
00FFFFFEFC00
01FFFFFFFC00
03FFFFFFFE00
07FFFFFFFE00
07FFFFFFFE00
0FFFFFFFFE00
1FC00FFFFF00
1E0003FFFF00
3C0000FFFF00
3000007FFF00
600000FFFF80
400001FFFF80
800003FFFF80
000007FFFFC0
000007FFFFC0
00000FFFFFC0
00001FFFFFC0
00003FFFFFE0
ENDCHAR
STARTCHAR 0062
ENCODING 98
SWIDTH 967 0
DWIDTH 43 0
BBX 41 24 1 2
BITMAP
020000000000
020000000000
060000000000
07003FF80000
0781FFFE0000
0787FFFF0000
0FCFFFFF8000
0FFFFFFFC000
0FFFFFFFE000
1FFFFFFFF000
1FFFFFFFF800
1FFFFFFFFC00
1FFFFE00FC00
3FFFF0003E00
3FFFE0000E00
3FFF80000700
3FFFC0000100
7FFFE0000080
7FFFF0000080
7FFFF8000000
7FFFF8000000
FFFFFC000000
FFFFFE000000
FFFFFF000000
ENDCHAR
STARTCHAR 0063
ENCODING 99
SWIDTH 967 0
DWIDTH 43 0
BBX 42 45 0 -8
BITMAP
00003FC00000
00007FE00000
00007FE00000
00007FE00000
00007FE00000
00007FE00000
00007FE00000
00007FE00000
00007FE00000
00007FE00000
00007FE00000
00007FE00000
00007FE00000
00007FE00000
00007FE00000
00007FE00000
00007FE00000
00007FE00000
00007FE00000
00007FE00000
10007FE00000
7E007FE00F80
7F807FE07FC0
7FE07FE1FFC0
FFF87FE3FFC0
7FFE7FFFFFC0
7FFFFFFFFFC0
3FFFFFFFFF80
1FFFFFFFFF00
0FFFFFFFFE00
07FFFFFFFC00
03FFFFFFF800
01FFFFFFF000
00FFFFFFE000
007FFFFFC000
003FFFFF8000
001FFFFF0000
000FFFFE0000
0007FFFC0000
0003FFF80000
0001FFF00000
0000FFE00000
00007FC00000
00003F800000
00001F000000
ENDCHAR
STARTCHAR 0064
ENCODING 100
SWIDTH 967 0
DWIDTH 43 0
BBX 41 42 1 -7
BITMAP
00000000F000
00000001F800
00000003FC00
00000007FE00
1C00000FFF00
7E00001FFF80
FF00003FFF80
FF00007FFF80
FF8000FFFF80
FF8001FFFF00
FF8003FFFE00
FFC007FFFC00
FFC00FFFF800
FFC01FFFF000
FFE03FFFE000
FFE07FFFC000
FFE0FFFF8000
FFF1FFFF0000
FFF3FFFE0000
FFF7FFFC0000
FFFFFFF80000
FFFFFFF00000
FFFFFFE00000
FFFFFFC00000
FFFFFF800000
FFFFFF000000
FFFFFE000000
FFFFFC000000
FFFFF8000000
FFFFFE000000
FFFFFFC00000
FFFFFFF80000
FFFFFFFF0000
FFFFFFFFC000
FFFFFFFFF000
FFFFFFFFF800
FFFFFFFFFC00
FFFFFFFFFC00
FFFFFFFFF800
FFFFFFFFF800
7FFFFFFFF000
1FFFFFFFE000
ENDCHAR
STARTCHAR 0065
ENCODING 101
SWIDTH 967 0
DWIDTH 43 0
BBX 41 42 1 -7
BITMAP
070000000000
0FC000000000
1FE000000000
3FF000000000
7FF800001C00
FFFC00003F00
FFFE00007F80
FFFF00007F80
FFFF8000FF80
7FFFC000FF80
3FFFE001FF80
1FFFF001FF80
0FFFF801FF80
07FFFC03FF80
03FFFE03FF80
01FFFF03FF80
00FFFF87FF80
007FFFC7FF80
003FFFE7FF80
001FFFFFFF80
000FFFFFFF80
0007FFFFFF80
0003FFFFFF80
0001FFFFFF80
0000FFFFFF80
00007FFFFF80
00003FFFFF80
00001FFFFF80
00000FFFFF80
00003FFFFF80
0001FFFFFF80
000FFFFFFF80
007FFFFFFF80
01FFFFFFFF80
07FFFFFFFF80
0FFFFFFFFF80
1FFFFFFFFF80
1FFFFFFFFF80
0FFFFFFFFF80
0FFFFFFFFF80
07FFFFFFFF00
03FFFFFFFC00
ENDCHAR
STARTCHAR 0066
ENCODING 102
SWIDTH 967 0
DWIDTH 43 0
BBX 43 40 0 -6
BITMAP
00003C000000
00007E000000
0000FE000000
0001FE000000
0003FE000000
0007FE000000
000FFC000000
001FFC000000
003FF8000000
007FF8000000
00FFF0000000
01FFF0000000
03FFE0000000
07FFE0000000
0FFFC0000000
1FFFFFFFFF80
3FFFFFFFFFC0
7FFFFFFFFFE0
FFFFFFFFFFE0
FFFFFFFFFFE0
FFFFFFFFFFE0
7FFFFFFFFFE0
7FFFFFFFFFE0
3FFFFFFFFFC0
1FFFFFFFFF80
0FFFE0000000
07FFE0000000
03FFF0000000
01FFF0000000
00FFF8000000
007FF8000000
003FFC000000
001FFC000000
000FFE000000
0007FE000000
0003FE000000
0001FE000000
0000FE000000
00007E000000
000018000000
ENDCHAR
STARTCHAR 0067
ENCODING 103
SWIDTH 967 0
DWIDTH 43 0
BBX 43 40 0 -6
BITMAP
000003000000
00000FC00000
00000FE00000
00001FF00000
00000FF80000
00000FFC0000
00000FFE0000
000007FF0000
000007FF8000
000003FFC000
000003FFE000
000001FFF000
000001FFF800
000000FFFC00
000000FFFE00
0000007FFF00
7FFFFFFFFF80
FFFFFFFFFFC0
FFFFFFFFFFC0
FFFFFFFFFFE0
FFFFFFFFFFE0
FFFFFFFFFFC0
FFFFFFFFFFC0
7FFFFFFFFF80
7FFFFFFFFF00
000000FFFE00
000000FFFC00
000001FFF800
000001FFF000
000003FFE000
000003FFC000
000007FF8000
000007FF0000
00000FFE0000
00000FFC0000
00000FF80000
00000FF00000
00000FE00000
00000FC00000
000003000000
ENDCHAR
STARTCHAR 0068
ENCODING 104
SWIDTH 967 0
DWIDTH 43 0
BBX 41 45 1 -8
BITMAP
00003E000000
00007F000000
0000FF800000
0001FFC00000
0003FFE00000
0007FFF00000
000FFFF80000
001FFFFC0000
003FFFFE0000
007FFFFF0000
00FFFFFF8000
01FFFFFFC000
03FFFFFFE000
07FFFFFFF000
0FFFFFFFF800
1FFFFFFFFC00
3FFFFFFFFE00
7FFFFFFFFF00
FFFFFFFFFF80
FFFCFFDFFF80
FFF0FFC7FF80
FFC0FFC1FF80
FF00FFC07F80
7800FFC01F00
0000FFC00000
0000FFC00000
0000FFC00000
0000FFC00000
0000FFC00000
0000FFC00000
0000FFC00000
0000FFC00000
0000FFC00000
0000FFC00000
0000FFC00000
0000FFC00000
0000FFC00000
0000FFC00000
0000FFC00000
0000FFC00000
0000FFC00000
0000FFC00000
0000FFC00000
0000FF800000
00003F000000
ENDCHAR
STARTCHAR 0069
ENCODING 105
SWIDTH 967 0
DWIDTH 43 0
BBX 43 42 0 -8
BITMAP
1FFFFFFFF800
7FFFFFFFFC00
7FFFFFFFFC00
FFFFFFFFFE00
FFFFFFFFFE00
FFFFFFFFFE00
FFFFFFFFFC00
FFFFFFFFF800
FFFFFFFFE000
FFFFFFFF8000
FFFFFFFC0000
FFFFFFE00000
FFFFFF000000
FFFFFC000000
FFFFFE000000
FFFFFF000000
FFFFFF800000
FFFFFFC00000
FFFFFFE00000
FFFFFFF00000
FFFFFFF80000
FFFFFFFC0000
FFFFFFFE0000
FFF9FFFF0000
FFF8FFFF8000
FFF07FFFC000
FFF03FFFE000
FFF01FFFF000
FFE00FFFF800
FFE007FFFC00
FFE003FFFE00
FFC001FFFF00
FFC000FFFF80
FFC0007FFFC0
7F80003FFFE0
7F80001FFFE0
3F00000FFFC0
1E000007FFC0
00000003FF80
00000001FF00
00000000FE00
000000007C00
ENDCHAR
STARTCHAR 006A
ENCODING 106
SWIDTH 967 0
DWIDTH 43 0
BBX 43 42 0 -7
BITMAP
03FFFFFFFF00
07FFFFFFFF80
07FFFFFFFFC0
0FFFFFFFFFC0
0FFFFFFFFFE0
0FFFFFFFFFE0
07FFFFFFFFE0
03FFFFFFFFE0
00FFFFFFFFE0
003FFFFFFFE0
0007FFFFFFE0
0000FFFFFFE0
00001FFFFFE0
000007FFFFE0
00000FFFFFE0
00001FFFFFE0
00003FFFFFE0
00007FFFFFE0
0000FFFFFFE0
0001FFFFFFE0
0003FFFFFFE0
0007FFFFFFE0
000FFFFFFFE0
001FFFF3FFE0
003FFFE3FFE0
007FFFC1FFE0
00FFFF81FFE0
01FFFF01FFE0
03FFFE00FFE0
07FFFC00FFE0
0FFFF800FFE0
1FFFF0007FE0
3FFFE0007FE0
7FFFC0007FE0
FFFF80003FC0
FFFF00003FC0
7FFE00001F80
7FFC00000F00
3FF800000000
1FF000000000
0FE000000000
07C000000000
ENDCHAR
STARTCHAR 006B
ENCODING 107
SWIDTH 967 0
DWIDTH 43 0
BBX 43 36 0 -4
BITMAP
000000800000
000000C00000
000000E00000
000000F00000
000000F80000
000000FC0000
000000FE0000
000000FF0000
000000FF8000
0003FFFFC000
001FFFFFE000
00FFFFFFF000
01FFFFFFF800
03FFFFFFFC00
07FFFFFFFE00
0FFFFFFFFF00
1FFFFFFFFF80
1FFFFFFFFFC0
3FFFFFFFFFE0
3FFFFFFFFF80
3FFC03FFFE00
7FE007FFF800
7F8007FFF000
7F0007FFC000
7E0007FF0000
FC0007FE0000
F8000FF80000
F8000FE00000
F0000F800000
E0000F000000
E0000C000000
E00010000000
C00000000000
C00000000000
800000000000
800000000000
ENDCHAR
STARTCHAR 006C
ENCODING 108
SWIDTH 1057 0
DWIDTH 47 0
BBX 47 40 0 -6
BITMAP
000008000000
000018000000
000038000000
000078000000
0000F8000000
0001F8000000
0003F8000000
0007F8000000
000FF8000000
001FF8000000
003FFFFF0000
007FFFFFE000
00FFFFFFF800
01FFFFFFFE00
03FFFFFFFF00
07FFFFFFFF80
0FFFFFFFFFC0
1FFFFFFFFFE0
3FFFFFFFFFF0
7FFFFFFFFFF0
FFFFFFFFFFF8
3FFFFFFFFFF8
0FFFFF00FFFC
07FFFF003FFC
01FFFF000FFC
007FFF0003FC
001FFF0001FE
000FFF0000FE
0003FF80007E
0000FF80003E
00007F80003E
00001F80001E
00000780001E
00000180000E
000000C0000E
000000000006
000000000006
000000000002
000000000002
000000000002
ENDCHAR
STARTCHAR 006D
ENCODING 109
SWIDTH 967 0
DWIDTH 43 0
BBX 37 45 3 -9
BITMAP
001FFFC000
001FFFC000
001FFFC000
001FFFC000
001FFFC000
001FFFC000
001FFFC000
001FFFC000
001FFFC000
001FFFC000
001FFFC000
001FFFC000
001FFFC000
001FFFC000
001FFFC000
001FFFC000
001FFFC000
001FFFC000
001FFFC000
001FFFC000
001FFFC000
001FFFC000
001FFFC000
001FFFC000
FFFFFFFFF8
7FFFFFFFF0
3FFFFFFFE0
1FFFFFFFC0
0FFFFFFF80
0FFFFFFF80
07FFFFFF00
03FFFFFE00
01FFFFFC00
00FFFFF800
007FFFF000
003FFFE000
001FFFC000
000FFF8000
0007FF0000
0003FE0000
0001FC0000
0000F80000
0000F80000
0000700000
0000200000
ENDCHAR
STARTCHAR 006E
ENCODING 110
SWIDTH 967 0
DWIDTH 43 0
BBX 43 36 0 -4
BITMAP
000010000000
000020000000
000060000000
0000E0000000
0001E0000000
0003E0000000
0007E0000000
000FE0000000
001FE0000000
007FE0000000
00FFE0000000
01FFFFFFFFE0
03FFFFFFFFE0
07FFFFFFFFE0
0FFFFFFFFFE0
1FFFFFFFFFE0
3FFFFFFFFFE0
FFFFFFFFFFE0
7FFFFFFFFFE0
3FFFFFFFFFE0
1FFFFFFFFFE0
0FFFFFFFFFE0
07FFFFFFFFE0
03FFFFFFFFE0
01FFFFFFFFE0
00FFE0000000
003FE0000000
001FE0000000
000FE0000000
0007E0000000
0003E0000000
0001E0000000
0000E0000000
000060000000
000020000000
000010000000
ENDCHAR
STARTCHAR 006F
ENCODING 111
SWIDTH 967 0
DWIDTH 43 0
BBX 43 36 0 -4
BITMAP
000001000000
000000800000
000000C00000
000000E00000
000000F00000
000000F80000
000000FC0000
000000FE0000
000000FF0000
000000FF8000
000000FFC000
FFFFFFFFF000
FFFFFFFFF800
FFFFFFFFFC00
FFFFFFFFFE00
FFFFFFFFFF00
FFFFFFFFFF80
FFFFFFFFFFE0
FFFFFFFFFFC0
FFFFFFFFFF80
FFFFFFFFFF00
FFFFFFFFFE00
FFFFFFFFFC00
FFFFFFFFF800
FFFFFFFFE000
000000FFC000
000000FF8000
000000FF0000
000000FE0000
000000FC0000
000000F80000
000000F00000
000000E00000
000000C00000
000000800000
000001000000
ENDCHAR
STARTCHAR 0070
ENCODING 112
SWIDTH 967 0
DWIDTH 43 0
BBX 37 45 3 -9
BITMAP
0000200000
0000700000
0000F80000
0001FC0000
0003FE0000
0007FF0000
000FFF8000
001FFFC000
003FFFE000
007FFFF000
00FFFFF800
00FFFFFC00
01FFFFFC00
03FFFFFE00
07FFFFFF00
0FFFFFFF80
1FFFFFFFC0
3FFFFFFFE0
7FFFFFFFF0
FFFFFFFFF8
001FFFC000
001FFFC000
001FFFC000
001FFFC000
001FFFC000
001FFFC000
001FFFC000
001FFFC000
001FFFC000
001FFFC000
001FFFC000
001FFFC000
001FFFC000
001FFFC000
001FFFC000
001FFFC000
001FFFC000
001FFFC000
001FFFC000
001FFFC000
001FFFC000
001FFFC000
001FFFC000
001FFFC000
001FFFC000
ENDCHAR
STARTCHAR 0071
ENCODING 113
SWIDTH 967 0
DWIDTH 43 0
BBX 39 45 2 -9
BITMAP
0000002000
0000003000
0000007000
000000F800
000000FC00
000001FC00
000001FE00
000003FE00
000007FF00
000007FF00
00000FFF80
00000FFFC0
FE001FFFC0
FE001FFFE0
FE003FFFE0
FE007FFFF0
FE007FFFF0
FE00FFFFF8
FE00FFFFFC
FE01FFFFFC
FE01FFFFFE
FE0001FC00
FE0001FC00
FE0001FC00
FE0001FC00
FE0001FC00
FE0001FC00
FE0001FC00
FE0001FC00
FE0001FC00
FF0001FC00
FF0001FC00
7F0003FC00
7F0003FC00
7F8007F800
7FC00FF800
3FE01FF000
1FFFFFF000
1FFFFFE000
0FFFFFC000
07FFFF8000
03FFFF0000
00FFFE0000
003FF80000
0007000000
ENDCHAR
STARTCHAR 0072
ENCODING 114
SWIDTH 967 0
DWIDTH 43 0
BBX 43 36 0 -4
BITMAP
000010000000
000070000000
0000F0000000
0003F0000000
000FF0000000
003FF0000000
007FF0000000
01FFF0000000
07FFFFFF0000
1FFFFFFFE000
3FFFFFFFF000
FFFFFFFFFC00
3FFFFFFFFE00
0FFFFFFFFF00
03FFFFFFFF00
01FFF000FF80
007FF0007F80
001FF0003FC0
0007F0001FC0
0003F0001FC0
0000F0000FE0
000030000FE0
000010000FE0
000000000FE0
000000001FC0
000000001FC0
000000003FC0
000000007FC0
00000000FF80
000FFFFFFF00
000FFFFFFF00
000FFFFFFE00
000FFFFFFC00
000FFFFFF800
000FFFFFE000
000FFFFF8000
ENDCHAR
STARTCHAR 0073
ENCODING 115
SWIDTH 967 0
DWIDTH 43 0
BBX 43 33 0 -3
BITMAP
0003FFF80000
001FFFFF0000
007FFFFFC000
01FFFFFFF000
07FFFFFFF800
0FFFFFFFFE00
1FFFFFFFFF00
3FFFFFFFFF00
3FFFFFFFFF80
7FFFFFFFFFC0
7FFFFFFFFFC0
7FFFFFFFFFC0
FFFFFFFFFFC0
FFFFFFFFFFE0
FFFFFFFFFFE0
FFFFFFFFFFC0
7FFFFFFFFFC0
7FFFFFFFFFC0
7FFFFFFFFF80
3FFFFFFFFF80
1FFFFFFFFF00
0FFFFFFFFE00
07FFFFFFFC00
03FFFFFFF800
01FFFFFFE000
007FFFFF8000
000FFFFC0000
0001FFC00000
0001F8000000
0001F0000000
0003E0000000
000780000000
001800000000
ENDCHAR
STARTCHAR 0074
ENCODING 116
SWIDTH 967 0
DWIDTH 43 0
BBX 43 36 0 -4
BITMAP
3FFFFFFFFF80
7FFFFFFFFFC0
FFFFFFFFFFE0
FFFFFFFFFFE0
FFFFFFFFFFE0
FFFFFFFFFFE0
FFFFFFFFFFE0
FFFFFFFFFFE0
FFFFFFFFFFE0
FFFFFFFFFFE0
FFFFFFFFFFE0
FFFFFFFFFFE0
FFFFFFFFFFE0
FFFFFFFFFFE0
FFFFFFFFFFE0
FFFFFFFFFFE0
FFFFFFFFFFE0
FFFFFFFFFFE0
FFFFFFFFFFE0
FFFFFFFFFFE0
FFFFFFFFFFE0
FFFFFFFFFFE0
FFFFFFFFFFE0
FFFFFFFFFFE0
FFFFFFFFFFE0
FFFFFFFFFFE0
7FFFFFFFFFC0
3FFFFFFFFF00
00003E000000
00007C000000
000078000000
0000F0000000
0000E0000000
000080000000
000100000000
000200000000
ENDCHAR
STARTCHAR 0075
ENCODING 117
SWIDTH 967 0
DWIDTH 43 0
BBX 43 34 0 -3
BITMAP
000004000000
0007FFF80000
003FFFFF0000
00FFFFFFE000
01FFFFFFF000
07FFFFFFFC00
0FFFFFFFFE00
1FFFFFFFFF00
3FFFFFFFFF80
3FFFFFFFFF80
7FFFFFFFFFC0
7FFFFFFFFFC0
FFFFFFFFFFC0
FFFFFFFFFFE0
FFFFFFFFFFE0
FFFFFFFFFFE0
FFFFFFFFFFC0
7FFFFFFFFFC0
7FFFFFFFFFC0
7FFFFFFFFF80
3FFFFFFFFF80
1FFFFFFFFF00
0FFFFFFFFE00
07FFFFFFFC00
03FFFFFFF800
00FFFFFFE000
003FFFFF8000
0007FFFE0000
00003FF00000
000003F00000
000001F00000
000000F80000
0000003C0000
000000030000
ENDCHAR
STARTCHAR 0076
ENCODING 118
SWIDTH 967 0
DWIDTH 43 0
BBX 43 36 0 -4
BITMAP
3FFFFFFFFF80
7FFFFFFFFFC0
FFFFFFFFFFE0
FFFFFFFFFFE0
FFFFFFFFFFE0
FFFFFFFFFFE0
FFFFFFFFFFE0
FFFFFFFFFFE0
FFFFFFFFFFE0
FFFFFFFFFFE0
FFFFFFFFFFE0
FFFFFFFFFFE0
FFFFFFFFFFE0
FFFFFFFFFFE0
FFFFFFFFFFE0
FFFFFFFFFFE0
FFFFFFFFFFE0
FFFFFFFFFFE0
FFFFFFFFFFE0
FFFFFFFFFFE0
FFFFFFFFFFE0
FFFFFFFFFFE0
FFFFFFFFFFE0
FFFFFFFFFFE0
FFFFFFFFFFE0
FFFFFFFFFFE0
7FFFFFFFFFC0
3FFFFFFFFF80
00001F800000
000007800000
000003C00000
000001C00000
000000E00000
000000600000
000000100000
000000100000
ENDCHAR
STARTCHAR 0077
ENCODING 119
SWIDTH 967 0
DWIDTH 43 0
BBX 43 42 0 -7
BITMAP
00001F000000
00003F800000
00003F800000
00007FC00000
00007FC00000
01E07FC1F000
03F9FFC3F800
03FFFFF7F800
07FFFFFFFC00
07FFFFFFFC00
03FFFFFFF800
03FFFFFFF800
01FFFFFFF000
01FFFFFFE000
01FFF1FFC000
03FFC07FE000
03FF003FE000
3FFF001FFF80
7FFE000FFFC0
7FFE000FFFC0
FFFE000FFFE0
FFFE000FFFE0
7FFE000FFFC0
7FFE000FFFC0
3FFF001FFF80
01FF001FE000
01FF803FC000
01FFE0FFC000
00FFFFFFE000
01FFFFFFF000
03FFFFFFF800
03FFFFFFF800
07FFFFFFFC00
07FFFFFFFC00
07FCFFC7F800
03F87FC3F800
01F07FC1F000
00007FC00000
00007FC00000
00003F800000
00003F800000
00001F000000
ENDCHAR
STARTCHAR 0078
ENCODING 120
SWIDTH 967 0
DWIDTH 43 0
BBX 43 36 0 -4
BITMAP
003000000000
0E7000000000
0E7000000000
0FFA00000000
0FFF80000000
6FFF80000000
FE1F00000000
FC1E00E00000
7C0F01F06000
1C0F83F0F800
3E1F83F1F800
7F7F81FFF800
7FFC03FFF800
37FCFFFFF000
07FDFFFFF000
079DFFFFF100
0309FFFFFFC0
0000FFC1FFC0
00003F80FFE0
00007F007FC0
00007F007FC0
00007F007E00
0001FF007C00
0003FF00FC00
0003FF80FE00
0003FFC1FF80
0001FFFFFF80
00001FFFFF80
00000FFFFF80
00000FFFC700
00000FFFC000
00000FCFC000
00000F8FC000
00000F87C000
00000007C000
000000010000
ENDCHAR
STARTCHAR 0079
ENCODING 121
SWIDTH 967 0
DWIDTH 43 0
BBX 43 38 0 -5
BITMAP
0001E0000000
000FFE007000
001FFF01FE00
003FFFC3FF80
00FFC027FC00
00FF8007E000
01FF800FE000
03FF800FF7C0
03FFC00FFF80
07FFC01FFF80
1FFFE01FFF00
7F87F03FFC00
FF03F83FF800
7F01FC7FF000
3F00FFFFF000
1F003FFF9800
0E001FFC0000
00000FF80000
00001FF00000
00003FF80000
00007FFC0000
0000FFFE0000
0001FFFF0000
0007FE7F8000
000FFC3FC000
001FF81FE000
003FF00FF000
00FFE007F800
01FF8007FC00
03FF0003FE00
07FE0001FF00
0FFC0000FF80
1FF800007FE0
1FF000003FC0
1FE000001F80
0FC000000F00
078000000E00
000000000400
ENDCHAR
STARTCHAR 007A
ENCODING 122
SWIDTH 967 0
DWIDTH 43 0
BBX 43 42 0 -7
BITMAP
000000400000
000000400000
000000C00000
000001C00000
000003800000
000007800000
00000F800000
00000F800000
00001F000000
00001F000000
00001F000000
00001F000000
00001F000000
00003E000000
00003E000000
00003E000000
00003E000060
00007C000F80
01E07C00FF00
0FF87C1FFE00
1FFC7FFFFC00
3FFEFFFFF800
7E3FFFFFF000
7C1FFFFF0000
F81FFFF00000
F83FFE000000
FFFFF8000000
7FFCF8000000
7FFBFC000000
3FF3FE000000
07C7FF000000
000FFF000000
000F8F000000
000F0F000000
000F0F000000
001F0F000000
000F1F000000
000FFE000000
000FFE000000
0007FC000000
0007F8000000
0001E0000000
ENDCHAR
STARTCHAR 007B
ENCODING 123
SWIDTH 967 0
DWIDTH 43 0
BBX 43 40 0 -6
BITMAP
0000000FF000
00000007C000
00000007E000
00000007F000
00000003F800
000000027C00
000000023E00
000000001E00
000000001F00
000000000F00
000000000780
000000000780
0000000003C0
0000000003C0
0000000003C0
0000000001C0
0000000001C0
0000000001E0
0000000001E0
F000000001E0
F000000001E0
F000000001C0
7000000003C0
7800000003C0
7800000003C0
780000000780
3C0000000780
3C0000000F80
1E0000000F00
1F0000001F00
0F8000003E00
07C000007C00
07E00000FC00
03F00001F800
01FC0007F000
00FF803FC000
003FFFFF8000
001FFFFE0000
0003FFF80000
00007FC00000
ENDCHAR
STARTCHAR 007C
ENCODING 124
SWIDTH 967 0
DWIDTH 43 0
BBX 43 40 0 -6
BITMAP
01FE00000000
007C00000000
00FC00000000
01FC00000000
03F800000000
07C800000000
0F8800000000
0F0800000000
1F0000000000
3E0000000000
3C0000000000
3C0000000000
780000000000
780000000000
780000000000
700000000000
F00000000000
F00000000000
F00000000000
F000000001E0
F000000001E0
F000000001C0
7000000001C0
7800000003C0
7800000003C0
7800000003C0
3C0000000780
3C0000000780
1E0000000F00
1F0000001F00
0F0000003E00
0FC000007C00
07E00000FC00
03F00001F800
01FC0007F000
00FF003FE000
003FFFFF8000
001FFFFF0000
0007FFF80000
00007FC00000
ENDCHAR
STARTCHAR 007D
ENCODING 125
SWIDTH 495 0
DWIDTH 22 0
BBX 0 0 0 0
BITMAP
ENDCHAR
STARTCHAR 007E
ENCODING 126
SWIDTH 495 0
DWIDTH 22 0
BBX 0 0 0 0
BITMAP
ENDCHAR
STARTCHAR 00A0
ENCODING 160
SWIDTH 247 0
DWIDTH 11 0
BBX 0 0 0 0
BITMAP
ENDCHAR
STARTCHAR 00A1
ENCODING 161
SWIDTH 315 0
DWIDTH 14 0
BBX 0 0 0 0
BITMAP
ENDCHAR
STARTCHAR 00A2
ENCODING 162
SWIDTH 540 0
DWIDTH 24 0
BBX 0 0 0 0
BITMAP
ENDCHAR
STARTCHAR 00A3
ENCODING 163
SWIDTH 495 0
DWIDTH 22 0
BBX 0 0 0 0
BITMAP
ENDCHAR
STARTCHAR 00A4
ENCODING 164
SWIDTH 495 0
DWIDTH 22 0
BBX 0 0 0 0
BITMAP
ENDCHAR
STARTCHAR 00A5
ENCODING 165
SWIDTH 607 0
DWIDTH 27 0
BBX 0 0 0 0
BITMAP
ENDCHAR
STARTCHAR 00A6
ENCODING 166
SWIDTH 495 0
DWIDTH 22 0
BBX 0 0 0 0
BITMAP
ENDCHAR
STARTCHAR 00A7
ENCODING 167
SWIDTH 495 0
DWIDTH 22 0
BBX 0 0 0 0
BITMAP
ENDCHAR
STARTCHAR 00A8
ENCODING 168
SWIDTH 495 0
DWIDTH 22 0
BBX 0 0 0 0
BITMAP
ENDCHAR
STARTCHAR 00A9
ENCODING 169
SWIDTH 810 0
DWIDTH 36 0
BBX 0 0 0 0
BITMAP
ENDCHAR
STARTCHAR 00AA
ENCODING 170
SWIDTH 315 0
DWIDTH 14 0
BBX 0 0 0 0
BITMAP
ENDCHAR
STARTCHAR 00AB
ENCODING 171
SWIDTH 450 0
DWIDTH 20 0
BBX 0 0 0 0
BITMAP
ENDCHAR
STARTCHAR 00AC
ENCODING 172
SWIDTH 495 0
DWIDTH 22 0
BBX 0 0 0 0
BITMAP
ENDCHAR
STARTCHAR 00AD
ENCODING 173
SWIDTH 967 0
DWIDTH 43 0
BBX 43 42 0 -7
BITMAP
0000FFE00000
0007FFFC0000
001FFFFF0000
003F001F8000
00F80003E000
01E00001F000
03C000007800
078000003C00
0FC000081E00
0E60001C0E00
1C30003C0700
1C18007C0700
380C00FC0380
380601FC0380
700383FC01C0
700007FC01C0
7007FFFC01C0
6007FFFC00C0
E007FFFC00C0
E007FFFC00E0
E007FFFC00E0
E007FFFC00E0
E007FFFC00E0
E007FFFC00C0
6007FFFC00C0
7007FFFC01C0
700007FC01C0
700003FC01C0
380001FC0380
380000FD0380
1C00007D0700
1C00003D8700
0E00001CCE00
0F0000087E00
078000003C00
03C000007800
01E00001F000
00F80003E000
003F001F8000
001FFFFF0000
0007FFFC0000
0000FFE00000
ENDCHAR
STARTCHAR 00AE
ENCODING 174
SWIDTH 810 0
DWIDTH 36 0
BBX 0 0 0 0
BITMAP
ENDCHAR
STARTCHAR 00AF
ENCODING 175
SWIDTH 315 0
DWIDTH 14 0
BBX 0 0 0 0
BITMAP
ENDCHAR
STARTCHAR 00B0
ENCODING 176
SWIDTH 315 0
DWIDTH 14 0
BBX 0 0 0 0
BITMAP
ENDCHAR
STARTCHAR 00B1
ENCODING 177
SWIDTH 495 0
DWIDTH 22 0
BBX 0 0 0 0
BITMAP
ENDCHAR
STARTCHAR 00B2
ENCODING 178
SWIDTH 495 0
DWIDTH 22 0
BBX 0 0 0 0
BITMAP
ENDCHAR
STARTCHAR 00B3
ENCODING 179
SWIDTH 495 0
DWIDTH 22 0
BBX 0 0 0 0
BITMAP
ENDCHAR
STARTCHAR 00B4
ENCODING 180
SWIDTH 495 0
DWIDTH 22 0
BBX 0 0 0 0
BITMAP
ENDCHAR
STARTCHAR 00B5
ENCODING 181
SWIDTH 562 0
DWIDTH 25 0
BBX 0 0 0 0
BITMAP
ENDCHAR
STARTCHAR 00B6
ENCODING 182
SWIDTH 495 0
DWIDTH 22 0
BBX 0 0 0 0
BITMAP
ENDCHAR
STARTCHAR 00B7
ENCODING 183
SWIDTH 247 0
DWIDTH 11 0
BBX 0 0 0 0
BITMAP
ENDCHAR
STARTCHAR 00B8
ENCODING 184
SWIDTH 495 0
DWIDTH 22 0
BBX 0 0 0 0
BITMAP
ENDCHAR
STARTCHAR 00B9
ENCODING 185
SWIDTH 495 0
DWIDTH 22 0
BBX 0 0 0 0
BITMAP
ENDCHAR
STARTCHAR 00BA
ENCODING 186
SWIDTH 337 0
DWIDTH 15 0
BBX 0 0 0 0
BITMAP
ENDCHAR
STARTCHAR 00BB
ENCODING 187
SWIDTH 450 0
DWIDTH 20 0
BBX 0 0 0 0
BITMAP
ENDCHAR
STARTCHAR 00BC
ENCODING 188
SWIDTH 832 0
DWIDTH 37 0
BBX 0 0 0 0
BITMAP
ENDCHAR
STARTCHAR 00BD
ENCODING 189
SWIDTH 945 0
DWIDTH 42 0
BBX 0 0 0 0
BITMAP
ENDCHAR
STARTCHAR 00BE
ENCODING 190
SWIDTH 832 0
DWIDTH 37 0
BBX 0 0 0 0
BITMAP
ENDCHAR
STARTCHAR 00BF
ENCODING 191
SWIDTH 360 0
DWIDTH 16 0
BBX 0 0 0 0
BITMAP
ENDCHAR
STARTCHAR 00C0
ENCODING 192
SWIDTH 742 0
DWIDTH 33 0
BBX 0 0 0 0
BITMAP
ENDCHAR
STARTCHAR 00C1
ENCODING 193
SWIDTH 742 0
DWIDTH 33 0
BBX 0 0 0 0
BITMAP
ENDCHAR
STARTCHAR 00C2
ENCODING 194
SWIDTH 742 0
DWIDTH 33 0
BBX 0 0 0 0
BITMAP
ENDCHAR
STARTCHAR 00C3
ENCODING 195
SWIDTH 742 0
DWIDTH 33 0
BBX 0 0 0 0
BITMAP
ENDCHAR
STARTCHAR 00C4
ENCODING 196
SWIDTH 742 0
DWIDTH 33 0
BBX 0 0 0 0
BITMAP
ENDCHAR
STARTCHAR 00C5
ENCODING 197
SWIDTH 742 0
DWIDTH 33 0
BBX 0 0 0 0
BITMAP
ENDCHAR
STARTCHAR 00C6
ENCODING 198
SWIDTH 1035 0
DWIDTH 46 0
BBX 0 0 0 0
BITMAP
ENDCHAR
STARTCHAR 00C7
ENCODING 199
SWIDTH 675 0
DWIDTH 30 0
BBX 0 0 0 0
BITMAP
ENDCHAR
STARTCHAR 00C8
ENCODING 200
SWIDTH 562 0
DWIDTH 25 0
BBX 0 0 0 0
BITMAP
ENDCHAR
STARTCHAR 00C9
ENCODING 201
SWIDTH 562 0
DWIDTH 25 0
BBX 0 0 0 0
BITMAP
ENDCHAR
STARTCHAR 00CA
ENCODING 202
SWIDTH 562 0
DWIDTH 25 0
BBX 0 0 0 0
BITMAP
ENDCHAR
STARTCHAR 00CB
ENCODING 203
SWIDTH 562 0
DWIDTH 25 0
BBX 0 0 0 0
BITMAP
ENDCHAR
STARTCHAR 00CC
ENCODING 204
SWIDTH 315 0
DWIDTH 14 0
BBX 0 0 0 0
BITMAP
ENDCHAR
STARTCHAR 00CD
ENCODING 205
SWIDTH 315 0
DWIDTH 14 0
BBX 0 0 0 0
BITMAP
ENDCHAR
STARTCHAR 00CE
ENCODING 206
SWIDTH 315 0
DWIDTH 14 0
BBX 0 0 0 0
BITMAP
ENDCHAR
STARTCHAR 00CF
ENCODING 207
SWIDTH 315 0
DWIDTH 14 0
BBX 0 0 0 0
BITMAP
ENDCHAR
STARTCHAR 00D0
ENCODING 208
SWIDTH 742 0
DWIDTH 33 0
BBX 0 0 0 0
BITMAP
ENDCHAR
STARTCHAR 00D1
ENCODING 209
SWIDTH 742 0
DWIDTH 33 0
BBX 0 0 0 0
BITMAP
ENDCHAR
STARTCHAR 00D2
ENCODING 210
SWIDTH 787 0
DWIDTH 35 0
BBX 0 0 0 0
BITMAP
ENDCHAR
STARTCHAR 00D3
ENCODING 211
SWIDTH 787 0
DWIDTH 35 0
BBX 0 0 0 0
BITMAP
ENDCHAR
STARTCHAR 00D4
ENCODING 212
SWIDTH 787 0
DWIDTH 35 0
BBX 0 0 0 0
BITMAP
ENDCHAR
STARTCHAR 00D5
ENCODING 213
SWIDTH 787 0
DWIDTH 35 0
BBX 0 0 0 0
BITMAP
ENDCHAR
STARTCHAR 00D6
ENCODING 214
SWIDTH 787 0
DWIDTH 35 0
BBX 0 0 0 0
BITMAP
ENDCHAR
STARTCHAR 00D7
ENCODING 215
SWIDTH 495 0
DWIDTH 22 0
BBX 0 0 0 0
BITMAP
ENDCHAR
STARTCHAR 00D8
ENCODING 216
SWIDTH 787 0
DWIDTH 35 0
BBX 0 0 0 0
BITMAP
ENDCHAR
STARTCHAR 00D9
ENCODING 217
SWIDTH 720 0
DWIDTH 32 0
BBX 0 0 0 0
BITMAP
ENDCHAR
STARTCHAR 00DA
ENCODING 218
SWIDTH 720 0
DWIDTH 32 0
BBX 0 0 0 0
BITMAP
ENDCHAR
STARTCHAR 00DB
ENCODING 219
SWIDTH 720 0
DWIDTH 32 0
BBX 0 0 0 0
BITMAP
ENDCHAR
STARTCHAR 00DC
ENCODING 220
SWIDTH 720 0
DWIDTH 32 0
BBX 0 0 0 0
BITMAP
ENDCHAR
STARTCHAR 00DD
ENCODING 221
SWIDTH 585 0
DWIDTH 26 0
BBX 0 0 0 0
BITMAP
ENDCHAR
STARTCHAR 00DE
ENCODING 222
SWIDTH 540 0
DWIDTH 24 0
BBX 0 0 0 0
BITMAP
ENDCHAR
STARTCHAR 00DF
ENCODING 223
SWIDTH 607 0
DWIDTH 27 0
BBX 0 0 0 0
BITMAP
ENDCHAR
STARTCHAR 00E0
ENCODING 224
SWIDTH 450 0
DWIDTH 20 0
BBX 0 0 0 0
BITMAP
ENDCHAR
STARTCHAR 00E1
ENCODING 225
SWIDTH 450 0
DWIDTH 20 0
BBX 0 0 0 0
BITMAP
ENDCHAR
STARTCHAR 00E2
ENCODING 226
SWIDTH 450 0
DWIDTH 20 0
BBX 0 0 0 0
BITMAP
ENDCHAR
STARTCHAR 00E3
ENCODING 227
SWIDTH 450 0
DWIDTH 20 0
BBX 0 0 0 0
BITMAP
ENDCHAR
STARTCHAR 00E4
ENCODING 228
SWIDTH 450 0
DWIDTH 20 0
BBX 0 0 0 0
BITMAP
ENDCHAR
STARTCHAR 00E5
ENCODING 229
SWIDTH 450 0
DWIDTH 20 0
BBX 0 0 0 0
BITMAP
ENDCHAR
STARTCHAR 00E6
ENCODING 230
SWIDTH 697 0
DWIDTH 31 0
BBX 0 0 0 0
BITMAP
ENDCHAR
STARTCHAR 00E7
ENCODING 231
SWIDTH 427 0
DWIDTH 19 0
BBX 0 0 0 0
BITMAP
ENDCHAR
STARTCHAR 00E8
ENCODING 232
SWIDTH 450 0
DWIDTH 20 0
BBX 0 0 0 0
BITMAP
ENDCHAR
STARTCHAR 00E9
ENCODING 233
SWIDTH 450 0
DWIDTH 20 0
BBX 0 0 0 0
BITMAP
ENDCHAR
STARTCHAR 00EA
ENCODING 234
SWIDTH 450 0
DWIDTH 20 0
BBX 0 0 0 0
BITMAP
ENDCHAR
STARTCHAR 00EB
ENCODING 235
SWIDTH 450 0
DWIDTH 20 0
BBX 0 0 0 0
BITMAP
ENDCHAR
STARTCHAR 00EC
ENCODING 236
SWIDTH 247 0
DWIDTH 11 0
BBX 0 0 0 0
BITMAP
ENDCHAR
STARTCHAR 00ED
ENCODING 237
SWIDTH 247 0
DWIDTH 11 0
BBX 0 0 0 0
BITMAP
ENDCHAR
STARTCHAR 00EE
ENCODING 238
SWIDTH 247 0
DWIDTH 11 0
BBX 0 0 0 0
BITMAP
ENDCHAR
STARTCHAR 00EF
ENCODING 239
SWIDTH 247 0
DWIDTH 11 0
BBX 0 0 0 0
BITMAP
ENDCHAR
STARTCHAR 00F0
ENCODING 240
SWIDTH 540 0
DWIDTH 24 0
BBX 0 0 0 0
BITMAP
ENDCHAR
STARTCHAR 00F1
ENCODING 241
SWIDTH 540 0
DWIDTH 24 0
BBX 0 0 0 0
BITMAP
ENDCHAR
STARTCHAR 00F2
ENCODING 242
SWIDTH 495 0
DWIDTH 22 0
BBX 0 0 0 0
BITMAP
ENDCHAR
STARTCHAR 00F3
ENCODING 243
SWIDTH 495 0
DWIDTH 22 0
BBX 0 0 0 0
BITMAP
ENDCHAR
STARTCHAR 00F4
ENCODING 244
SWIDTH 495 0
DWIDTH 22 0
BBX 0 0 0 0
BITMAP
ENDCHAR
STARTCHAR 00F5
ENCODING 245
SWIDTH 495 0
DWIDTH 22 0
BBX 0 0 0 0
BITMAP
ENDCHAR
STARTCHAR 00F6
ENCODING 246
SWIDTH 495 0
DWIDTH 22 0
BBX 0 0 0 0
BITMAP
ENDCHAR
STARTCHAR 00F7
ENCODING 247
SWIDTH 495 0
DWIDTH 22 0
BBX 0 0 0 0
BITMAP
ENDCHAR
STARTCHAR 00F8
ENCODING 248
SWIDTH 495 0
DWIDTH 22 0
BBX 0 0 0 0
BITMAP
ENDCHAR
STARTCHAR 00F9
ENCODING 249
SWIDTH 517 0
DWIDTH 23 0
BBX 0 0 0 0
BITMAP
ENDCHAR
STARTCHAR 00FA
ENCODING 250
SWIDTH 517 0
DWIDTH 23 0
BBX 0 0 0 0
BITMAP
ENDCHAR
STARTCHAR 00FB
ENCODING 251
SWIDTH 517 0
DWIDTH 23 0
BBX 0 0 0 0
BITMAP
ENDCHAR
STARTCHAR 00FC
ENCODING 252
SWIDTH 517 0
DWIDTH 23 0
BBX 0 0 0 0
BITMAP
ENDCHAR
STARTCHAR 00FD
ENCODING 253
SWIDTH 427 0
DWIDTH 19 0
BBX 0 0 0 0
BITMAP
ENDCHAR
STARTCHAR 00FE
ENCODING 254
SWIDTH 495 0
DWIDTH 22 0
BBX 0 0 0 0
BITMAP
ENDCHAR
STARTCHAR 00FF
ENCODING 255
SWIDTH 427 0
DWIDTH 19 0
BBX 0 0 0 0
BITMAP
ENDCHAR
STARTCHAR 0131
ENCODING 305
SWIDTH 247 0
DWIDTH 11 0
BBX 0 0 0 0
BITMAP
ENDCHAR
STARTCHAR 02C6
ENCODING 710
SWIDTH 495 0
DWIDTH 22 0
BBX 0 0 0 0
BITMAP
ENDCHAR
STARTCHAR 02C7
ENCODING 711
SWIDTH 495 0
DWIDTH 22 0
BBX 0 0 0 0
BITMAP
ENDCHAR
STARTCHAR 02C9
ENCODING 713
SWIDTH 495 0
DWIDTH 22 0
BBX 0 0 0 0
BITMAP
ENDCHAR
STARTCHAR 02D8
ENCODING 728
SWIDTH 495 0
DWIDTH 22 0
BBX 0 0 0 0
BITMAP
ENDCHAR
STARTCHAR 02D9
ENCODING 729
SWIDTH 495 0
DWIDTH 22 0
BBX 0 0 0 0
BITMAP
ENDCHAR
STARTCHAR 02DA
ENCODING 730
SWIDTH 495 0
DWIDTH 22 0
BBX 0 0 0 0
BITMAP
ENDCHAR
STARTCHAR 02DB
ENCODING 731
SWIDTH 495 0
DWIDTH 22 0
BBX 0 0 0 0
BITMAP
ENDCHAR
STARTCHAR 02DC
ENCODING 732
SWIDTH 495 0
DWIDTH 22 0
BBX 0 0 0 0
BITMAP
ENDCHAR
STARTCHAR 02DD
ENCODING 733
SWIDTH 495 0
DWIDTH 22 0
BBX 0 0 0 0
BITMAP
ENDCHAR
STARTCHAR 037E
ENCODING 894
SWIDTH 967 0
DWIDTH 43 0
BBX 43 42 0 -7
BITMAP
00000E000000
00000E000000
00000E000000
00000E000000
00000E000000
00000E000000
00000E000000
00000E000000
00000E000000
00000E000000
00000E000000
00000E000000
00000E000000
00000E000000
00000E000000
00000E000000
00000E000000
00000E000000
00000E000000
FFFFFFFFFFE0
FFFFFFFFFFE0
FFFFFFFFFFE0
FFFFFFFFFFE0
00000E000000
00000E000000
00000E000000
00000E000000
00000E000000
00000E000000
00000E000000
00000E000000
00000E000000
00000E000000
00000E000000
00000E000000
00000E000000
00000E000000
00000E000000
00000E000000
00000E000000
00000E000000
00000E000000
ENDCHAR
STARTCHAR 2013
ENCODING 8211
SWIDTH 540 0
DWIDTH 24 0
BBX 0 0 0 0
BITMAP
ENDCHAR
STARTCHAR 2014
ENCODING 8212
SWIDTH 990 0
DWIDTH 44 0
BBX 0 0 0 0
BITMAP
ENDCHAR
STARTCHAR 2018
ENCODING 8216
SWIDTH 270 0
DWIDTH 12 0
BBX 0 0 0 0
BITMAP
ENDCHAR
STARTCHAR 2019
ENCODING 8217
SWIDTH 270 0
DWIDTH 12 0
BBX 0 0 0 0
BITMAP
ENDCHAR
STARTCHAR 201A
ENCODING 8218
SWIDTH 270 0
DWIDTH 12 0
BBX 0 0 0 0
BITMAP
ENDCHAR
STARTCHAR 201C
ENCODING 8220
SWIDTH 450 0
DWIDTH 20 0
BBX 0 0 0 0
BITMAP
ENDCHAR
STARTCHAR 201D
ENCODING 8221
SWIDTH 450 0
DWIDTH 20 0
BBX 0 0 0 0
BITMAP
ENDCHAR
STARTCHAR 201E
ENCODING 8222
SWIDTH 450 0
DWIDTH 20 0
BBX 0 0 0 0
BITMAP
ENDCHAR
STARTCHAR 2020
ENCODING 8224
SWIDTH 495 0
DWIDTH 22 0
BBX 0 0 0 0
BITMAP
ENDCHAR
STARTCHAR 2021
ENCODING 8225
SWIDTH 495 0
DWIDTH 22 0
BBX 0 0 0 0
BITMAP
ENDCHAR
STARTCHAR 2022
ENCODING 8226
SWIDTH 495 0
DWIDTH 22 0
BBX 0 0 0 0
BITMAP
ENDCHAR
STARTCHAR 2026
ENCODING 8230
SWIDTH 990 0
DWIDTH 44 0
BBX 0 0 0 0
BITMAP
ENDCHAR
STARTCHAR 2039
ENCODING 8249
SWIDTH 315 0
DWIDTH 14 0
BBX 0 0 0 0
BITMAP
ENDCHAR
STARTCHAR 203A
ENCODING 8250
SWIDTH 315 0
DWIDTH 14 0
BBX 0 0 0 0
BITMAP
ENDCHAR
STARTCHAR 2044
ENCODING 8260
SWIDTH 157 0
DWIDTH 7 0
BBX 0 0 0 0
BITMAP
ENDCHAR
STARTCHAR 20A3
ENCODING 8355
SWIDTH 495 0
DWIDTH 22 0
BBX 0 0 0 0
BITMAP
ENDCHAR
STARTCHAR 20A4
ENCODING 8356
SWIDTH 495 0
DWIDTH 22 0
BBX 0 0 0 0
BITMAP
ENDCHAR
STARTCHAR 20A7
ENCODING 8359
SWIDTH 990 0
DWIDTH 44 0
BBX 0 0 0 0
BITMAP
ENDCHAR
STARTCHAR 20AC
ENCODING 8364
SWIDTH 495 0
DWIDTH 22 0
BBX 0 0 0 0
BITMAP
ENDCHAR
STARTCHAR 2116
ENCODING 8470
SWIDTH 1102 0
DWIDTH 49 0
BBX 0 0 0 0
BITMAP
ENDCHAR
STARTCHAR 2122
ENCODING 8482
SWIDTH 720 0
DWIDTH 32 0
BBX 0 0 0 0
BITMAP
ENDCHAR
STARTCHAR 2202
ENCODING 8706
SWIDTH 495 0
DWIDTH 22 0
BBX 0 0 0 0
BITMAP
ENDCHAR
STARTCHAR 2206
ENCODING 8710
SWIDTH 517 0
DWIDTH 23 0
BBX 0 0 0 0
BITMAP
ENDCHAR
STARTCHAR 220F
ENCODING 8719
SWIDTH 742 0
DWIDTH 33 0
BBX 0 0 0 0
BITMAP
ENDCHAR
STARTCHAR 2211
ENCODING 8721
SWIDTH 585 0
DWIDTH 26 0
BBX 0 0 0 0
BITMAP
ENDCHAR
STARTCHAR 2212
ENCODING 8722
SWIDTH 495 0
DWIDTH 22 0
BBX 0 0 0 0
BITMAP
ENDCHAR
STARTCHAR 2215
ENCODING 8725
SWIDTH 157 0
DWIDTH 7 0
BBX 0 0 0 0
BITMAP
ENDCHAR
STARTCHAR 2219
ENCODING 8729
SWIDTH 247 0
DWIDTH 11 0
BBX 0 0 0 0
BITMAP
ENDCHAR
STARTCHAR 221A
ENCODING 8730
SWIDTH 495 0
DWIDTH 22 0
BBX 0 0 0 0
BITMAP
ENDCHAR
STARTCHAR 221E
ENCODING 8734
SWIDTH 495 0
DWIDTH 22 0
BBX 0 0 0 0
BITMAP
ENDCHAR
STARTCHAR 222B
ENCODING 8747
SWIDTH 315 0
DWIDTH 14 0
BBX 0 0 0 0
BITMAP
ENDCHAR
STARTCHAR 2248
ENCODING 8776
SWIDTH 495 0
DWIDTH 22 0
BBX 0 0 0 0
BITMAP
ENDCHAR
STARTCHAR 2264
ENCODING 8804
SWIDTH 495 0
DWIDTH 22 0
BBX 0 0 0 0
BITMAP
ENDCHAR
STARTCHAR 2265
ENCODING 8805
SWIDTH 495 0
DWIDTH 22 0
BBX 0 0 0 0
BITMAP
ENDCHAR
STARTCHAR F001
ENCODING 61441
SWIDTH 517 0
DWIDTH 23 0
BBX 0 0 0 0
BITMAP
ENDCHAR
STARTCHAR F002
ENCODING 61442
SWIDTH 517 0
DWIDTH 23 0
BBX 0 0 0 0
BITMAP
ENDCHAR
STARTCHAR FB01
ENCODING 64257
SWIDTH 517 0
DWIDTH 23 0
BBX 0 0 0 0
BITMAP
ENDCHAR
STARTCHAR FB02
ENCODING 64258
SWIDTH 517 0
DWIDTH 23 0
BBX 0 0 0 0
BITMAP
ENDCHAR
ENDFONT
